ISO-10303-21;
HEADER;
FILE_DESCRIPTION (( 'STEP AP203' ),
    '1' );
FILE_NAME ('91100A101_Zinc-Plated Steel Oversized Washer.STEP',
    '2024-06-05T14:44:44',
    ( 'Administrator' ),
    ( 'Managed by Terraform' ),
    'SwSTEP 2.0',
    'SolidWorks 2017',
    '' );
FILE_SCHEMA (( 'CONFIG_CONTROL_DESIGN' ));
ENDSEC;

DATA;
#1 = VECTOR ( 'NONE', #95, 1000.000000000000000 ) ;
#2 = CC_DESIGN_PERSON_AND_ORGANIZATION_ASSIGNMENT ( #177, #5, ( #195 ) ) ;
#3 = ORIENTED_EDGE ( 'NONE', *, *, #28, .T. ) ;
#4 = CARTESIAN_POINT ( 'NONE',  ( 3.499999999999999600, 4.286263797015736100E-016, 0.4000000000000000200 ) ) ;
#5 = PERSON_AND_ORGANIZATION_ROLE ( 'design_owner' ) ;
#6 = EDGE_CURVE ( 'NONE', #63, #112, #60, .T. ) ;
#7 = ORIENTED_EDGE ( 'NONE', *, *, #6, .T. ) ;
#8 = LINE ( 'NONE', #62, #54 ) ;
#9 = ORIENTED_EDGE ( 'NONE', *, *, #147, .T. ) ;
#10 = APPROVAL_DATE_TIME ( #25, #149 ) ;
#11 = CIRCLE ( 'NONE', #107, 1.100000000000000300 ) ;
#12 = AXIS2_PLACEMENT_3D ( 'NONE', #36, #76, #164 ) ;
#13 = CARTESIAN_POINT ( 'NONE',  ( -3.499999999999999600, 0.0000000000000000000, 0.4000000000000000200 ) ) ;
#14 = EDGE_LOOP ( 'NONE', ( #240, #22, #3, #157 ) ) ;
#15 = CALENDAR_DATE ( 2024, 5, 6 ) ;
#16 = APPLICATION_CONTEXT ( 'configuration controlled 3d designs of mechanical parts and assemblies' ) ;
#17 = DIRECTION ( 'NONE',  ( 1.000000000000000000, 0.0000000000000000000, 0.0000000000000000000 ) ) ;
#18 = EDGE_CURVE ( 'NONE', #156, #121, #35, .T. ) ;
#19 = ADVANCED_FACE ( 'NONE', ( #209, #101 ), #31, .T. ) ;
#20 = CC_DESIGN_PERSON_AND_ORGANIZATION_ASSIGNMENT ( #75, #57, ( #43 ) ) ;
#21 = CARTESIAN_POINT ( 'NONE',  ( 1.100000000000000300, 1.347111479062088700E-016, 0.4000000000000000200 ) ) ;
#22 = ORIENTED_EDGE ( 'NONE', *, *, #115, .T. ) ;
#23 = DIRECTION ( 'NONE',  ( -0.0000000000000000000, -0.0000000000000000000, -1.000000000000000000 ) ) ;
#24 = CARTESIAN_POINT ( 'NONE',  ( 3.499999999999999600, 4.286263797015736100E-016, -0.4000000000000000200 ) ) ;
#25 = DATE_AND_TIME ( #129, #231 ) ;
#26 = APPROVAL_STATUS ( 'not_yet_approved' ) ;
#27 = SECURITY_CLASSIFICATION ( '', '', #167 ) ;
#28 = EDGE_CURVE ( 'NONE', #112, #63, #178, .T. ) ;
#29 = VERTEX_POINT ( 'NONE', #46 ) ;
#30 = CALENDAR_DATE ( 2024, 5, 6 ) ;
#31 = PLANE ( 'NONE',  #42 ) ;
#32 = PERSON_AND_ORGANIZATION ( #132, #117 ) ;
#33 = AXIS2_PLACEMENT_3D ( 'NONE', #50, #51, #182 ) ;
#34 =( NAMED_UNIT ( * ) PLANE_ANGLE_UNIT ( ) SI_UNIT ( $, .RADIAN. ) );
#35 = CIRCLE ( 'NONE', #67, 1.100000000000000300 ) ;
#36 = CARTESIAN_POINT ( 'NONE',  ( 0.0000000000000000000, 0.0000000000000000000, 0.4000000000000000200 ) ) ;
#37 = EDGE_CURVE ( 'NONE', #48, #245, #11, .T. ) ;
#38 = APPROVAL_PERSON_ORGANIZATION ( #87, #149, #145 ) ;
#39 = DIRECTION ( 'NONE',  ( 0.0000000000000000000, 0.0000000000000000000, 1.000000000000000000 ) ) ;
#40 = DIRECTION ( 'NONE',  ( 0.0000000000000000000, 0.0000000000000000000, 1.000000000000000000 ) ) ;
#41 = APPROVAL_PERSON_ORGANIZATION ( #191, #90, #203 ) ;
#42 = AXIS2_PLACEMENT_3D ( 'NONE', #137, #227, #243 ) ;
#43 = PRODUCT_DEFINITION_FORMATION_WITH_SPECIFIED_SOURCE ( 'ANY', '', #195, .NOT_KNOWN. ) ;
#44 = CIRCLE ( 'NONE', #123, 3.499999999999999600 ) ;
#45 = CYLINDRICAL_SURFACE ( 'NONE', #247, 3.499999999999999600 ) ;
#46 = CARTESIAN_POINT ( 'NONE',  ( 3.499999999999999600, 4.286263797015736100E-016, 0.4000000000000000200 ) ) ;
#47 = DIRECTION ( 'NONE',  ( 1.000000000000000000, 0.0000000000000000000, 0.0000000000000000000 ) ) ;
#48 = VERTEX_POINT ( 'NONE', #114 ) ;
#49 = CIRCLE ( 'NONE', #185, 1.100000000000000300 ) ;
#50 = CARTESIAN_POINT ( 'NONE',  ( 0.0000000000000000000, 0.0000000000000000000, -0.4000000000000000200 ) ) ;
#51 = DIRECTION ( 'NONE',  ( 0.0000000000000000000, 0.0000000000000000000, 1.000000000000000000 ) ) ;
#52 = CYLINDRICAL_SURFACE ( 'NONE', #141, 1.100000000000000300 ) ;
#53 = CC_DESIGN_APPROVAL ( #149, ( #27 ) ) ;
#54 = VECTOR ( 'NONE', #116, 1000.000000000000000 ) ;
#55 = CIRCLE ( 'NONE', #226, 1.100000000000000300 ) ;
#56 = DIRECTION ( 'NONE',  ( 1.000000000000000000, 0.0000000000000000000, -0.0000000000000000000 ) ) ;
#57 = PERSON_AND_ORGANIZATION_ROLE ( 'design_supplier' ) ;
#58 = CARTESIAN_POINT ( 'NONE',  ( 0.0000000000000000000, 0.0000000000000000000, 0.4000000000000000200 ) ) ;
#59 = AXIS2_PLACEMENT_3D ( 'NONE', #170, #40, #196 ) ;
#60 = CIRCLE ( 'NONE', #33, 3.499999999999999600 ) ;
#61 = CIRCLE ( 'NONE', #12, 3.499999999999999600 ) ;
#62 = CARTESIAN_POINT ( 'NONE',  ( -3.499999999999999600, 0.0000000000000000000, 0.4000000000000000200 ) ) ;
#63 = VERTEX_POINT ( 'NONE', #175 ) ;
#64 = PERSON_AND_ORGANIZATION ( #132, #117 ) ;
#65 = DIRECTION ( 'NONE',  ( -1.000000000000000000, 0.0000000000000000000, 0.0000000000000000000 ) ) ;
#66 = ORIENTED_EDGE ( 'NONE', *, *, #18, .T. ) ;
#67 = AXIS2_PLACEMENT_3D ( 'NONE', #70, #208, #159 ) ;
#68 = ORIENTED_EDGE ( 'NONE', *, *, #244, .T. ) ;
#69 = APPROVAL_PERSON_ORGANIZATION ( #64, #205, #197 ) ;
#70 = CARTESIAN_POINT ( 'NONE',  ( 0.0000000000000000000, 0.0000000000000000000, -0.4000000000000000200 ) ) ;
#71 = DIRECTION ( 'NONE',  ( 0.0000000000000000000, 0.0000000000000000000, 1.000000000000000000 ) ) ;
#72 = PLANE ( 'NONE',  #200 ) ;
#73 = EDGE_LOOP ( 'NONE', ( #212, #142 ) ) ;
#74 = CARTESIAN_POINT ( 'NONE',  ( 0.0000000000000000000, 0.0000000000000000000, -0.4000000000000000200 ) ) ;
#75 = PERSON_AND_ORGANIZATION ( #132, #117 ) ;
#76 = DIRECTION ( 'NONE',  ( 0.0000000000000000000, 0.0000000000000000000, 1.000000000000000000 ) ) ;
#77 = ORIENTED_EDGE ( 'NONE', *, *, #181, .T. ) ;
#78 = ADVANCED_FACE ( 'NONE', ( #98 ), #52, .F. ) ;
#79 = EDGE_LOOP ( 'NONE', ( #77, #66 ) ) ;
#80 = DATE_AND_TIME ( #228, #126 ) ;
#81 = DIRECTION ( 'NONE',  ( -0.0000000000000000000, -0.0000000000000000000, -1.000000000000000000 ) ) ;
#82 = CC_DESIGN_APPROVAL ( #205, ( #105 ) ) ;
#83 = DIRECTION ( 'NONE',  ( -1.000000000000000000, 0.0000000000000000000, 0.0000000000000000000 ) ) ;
#84 = DATE_AND_TIME ( #30, #187 ) ;
#85 = DIRECTION ( 'NONE',  ( -1.000000000000000000, 0.0000000000000000000, 0.0000000000000000000 ) ) ;
#86 = ORIENTED_EDGE ( 'NONE', *, *, #160, .T. ) ;
#87 = PERSON_AND_ORGANIZATION ( #132, #117 ) ;
#88 = ORIENTED_EDGE ( 'NONE', *, *, #6, .F. ) ;
#89 = DESIGN_CONTEXT ( 'detailed design', #224, 'design' ) ;
#90 = APPROVAL ( #26, 'UNSPECIFIED' ) ;
#91 = ADVANCED_FACE ( 'NONE', ( #217 ), #202, .T. ) ;
#92 = FACE_BOUND ( 'NONE', #79, .T. ) ;
#93 = DATE_AND_TIME ( #15, #139 ) ;
#94 = MECHANICAL_CONTEXT ( 'NONE', #16, 'mechanical' ) ;
#95 = DIRECTION ( 'NONE',  ( -0.0000000000000000000, -0.0000000000000000000, -1.000000000000000000 ) ) ;
#96 = VECTOR ( 'NONE', #118, 1000.000000000000000 ) ;
#97 = MANIFOLD_SOLID_BREP ( 'Boss-Extrude1', #198 ) ;
#98 = FACE_OUTER_BOUND ( 'NONE', #206, .T. ) ;
#99 = LINE ( 'NONE', #199, #1 ) ;
#100 = CARTESIAN_POINT ( 'NONE',  ( 0.0000000000000000000, 0.0000000000000000000, 0.0000000000000000000 ) ) ;
#101 = FACE_BOUND ( 'NONE', #73, .T. ) ;
#102 = PERSON_AND_ORGANIZATION ( #132, #117 ) ;
#103 = CC_DESIGN_PERSON_AND_ORGANIZATION_ASSIGNMENT ( #32, #183, ( #105 ) ) ;
#104 = DATE_TIME_ROLE ( 'creation_date' ) ;
#105 = PRODUCT_DEFINITION ( 'UNKNOWN', '', #43, #89 ) ;
#106 = EDGE_LOOP ( 'NONE', ( #223, #110, #68, #236 ) ) ;
#107 = AXIS2_PLACEMENT_3D ( 'NONE', #239, #154, #47 ) ;
#108 = PRODUCT_RELATED_PRODUCT_CATEGORY ( 'detail', '', ( #195 ) ) ;
#109 = PERSON_AND_ORGANIZATION_ROLE ( 'creator' ) ;
#110 = ORIENTED_EDGE ( 'NONE', *, *, #211, .T. ) ;
#111 = DIRECTION ( 'NONE',  ( 0.0000000000000000000, 0.0000000000000000000, 1.000000000000000000 ) ) ;
#112 = VERTEX_POINT ( 'NONE', #24 ) ;
#113 = AXIS2_PLACEMENT_3D ( 'NONE', #100, #71, #166 ) ;
#114 = CARTESIAN_POINT ( 'NONE',  ( -1.100000000000000300, 0.0000000000000000000, 0.4000000000000000200 ) ) ;
#115 = EDGE_CURVE ( 'NONE', #29, #112, #246, .T. ) ;
#116 = DIRECTION ( 'NONE',  ( -0.0000000000000000000, -0.0000000000000000000, -1.000000000000000000 ) ) ;
#117 = ORGANIZATION ( 'UNSPECIFIED', 'UNSPECIFIED', '' ) ;
#118 = DIRECTION ( 'NONE',  ( -0.0000000000000000000, -0.0000000000000000000, -1.000000000000000000 ) ) ;
#119 = CC_DESIGN_PERSON_AND_ORGANIZATION_ASSIGNMENT ( #102, #109, ( #43 ) ) ;
#120 = PERSON_AND_ORGANIZATION ( #132, #117 ) ;
#121 = VERTEX_POINT ( 'NONE', #221 ) ;
#122 = UNCERTAINTY_MEASURE_WITH_UNIT (LENGTH_MEASURE( 1.000000000000000100E-005 ), #213, 'distance_accuracy_value', 'NONE');
#123 = AXIS2_PLACEMENT_3D ( 'NONE', #58, #111, #17 ) ;
#124 = CALENDAR_DATE ( 2024, 5, 6 ) ;
#125 =( GEOMETRIC_REPRESENTATION_CONTEXT ( 3 ) GLOBAL_UNCERTAINTY_ASSIGNED_CONTEXT ( ( #122 ) ) GLOBAL_UNIT_ASSIGNED_CONTEXT ( ( #213, #34, #162 ) ) REPRESENTATION_CONTEXT ( 'NONE', 'WORKASPACE' ) );
#126 = LOCAL_TIME ( 9, 44, 44.00000000000000000, #168 ) ;
#127 = ORIENTED_EDGE ( 'NONE', *, *, #160, .F. ) ;
#128 = SHAPE_DEFINITION_REPRESENTATION ( #174, #171 ) ;
#129 = CALENDAR_DATE ( 2024, 5, 6 ) ;
#130 = ADVANCED_FACE ( 'NONE', ( #148 ), #146, .F. ) ;
#131 = DIRECTION ( 'NONE',  ( -0.0000000000000000000, -0.0000000000000000000, -1.000000000000000000 ) ) ;
#132 = PERSON ( 'UNSPECIFIED', 'UNSPECIFIED', 'UNSPECIFIED', ('UNSPECIFIED'), ('UNSPECIFIED'), ('UNSPECIFIED') ) ;
#133 = DIRECTION ( 'NONE',  ( 0.0000000000000000000, 0.0000000000000000000, 1.000000000000000000 ) ) ;
#134 = LOCAL_TIME ( 9, 44, 44.00000000000000000, #153 ) ;
#135 = ORIENTED_EDGE ( 'NONE', *, *, #115, .F. ) ;
#136 = LINE ( 'NONE', #235, #190 ) ;
#137 = CARTESIAN_POINT ( 'NONE',  ( 0.0000000000000000000, 0.0000000000000000000, 0.4000000000000000200 ) ) ;
#138 = FACE_OUTER_BOUND ( 'NONE', #172, .T. ) ;
#139 = LOCAL_TIME ( 9, 44, 44.00000000000000000, #210 ) ;
#140 = CC_DESIGN_SECURITY_CLASSIFICATION ( #27, ( #43 ) ) ;
#141 = AXIS2_PLACEMENT_3D ( 'NONE', #179, #238, #85 ) ;
#142 = ORIENTED_EDGE ( 'NONE', *, *, #211, .F. ) ;
#143 = APPROVAL_STATUS ( 'not_yet_approved' ) ;
#144 = DIRECTION ( 'NONE',  ( 0.0000000000000000000, 0.0000000000000000000, 1.000000000000000000 ) ) ;
#145 = APPROVAL_ROLE ( '' ) ;
#146 = CYLINDRICAL_SURFACE ( 'NONE', #207, 1.100000000000000300 ) ;
#147 = EDGE_CURVE ( 'NONE', #29, #161, #44, .T. ) ;
#148 = FACE_OUTER_BOUND ( 'NONE', #106, .T. ) ;
#149 = APPROVAL ( #143, 'UNSPECIFIED' ) ;
#150 = ADVANCED_FACE ( 'NONE', ( #138, #92 ), #72, .F. ) ;
#151 = CARTESIAN_POINT ( 'NONE',  ( 0.0000000000000000000, 0.0000000000000000000, 0.4000000000000000200 ) ) ;
#152 = ORIENTED_EDGE ( 'NONE', *, *, #244, .F. ) ;
#153 = COORDINATED_UNIVERSAL_TIME_OFFSET ( 6, 0, .BEHIND. ) ;
#154 = DIRECTION ( 'NONE',  ( 0.0000000000000000000, 0.0000000000000000000, 1.000000000000000000 ) ) ;
#155 = CC_DESIGN_APPROVAL ( #90, ( #43 ) ) ;
#156 = VERTEX_POINT ( 'NONE', #194 ) ;
#157 = ORIENTED_EDGE ( 'NONE', *, *, #233, .F. ) ;
#158 = COORDINATED_UNIVERSAL_TIME_OFFSET ( 6, 0, .BEHIND. ) ;
#159 = DIRECTION ( 'NONE',  ( 1.000000000000000000, 0.0000000000000000000, 0.0000000000000000000 ) ) ;
#160 = EDGE_CURVE ( 'NONE', #161, #29, #61, .T. ) ;
#161 = VERTEX_POINT ( 'NONE', #13 ) ;
#162 =( NAMED_UNIT ( * ) SI_UNIT ( $, .STERADIAN. ) SOLID_ANGLE_UNIT ( ) );
#163 = CC_DESIGN_PERSON_AND_ORGANIZATION_ASSIGNMENT ( #120, #189, ( #27 ) ) ;
#164 = DIRECTION ( 'NONE',  ( 1.000000000000000000, 0.0000000000000000000, 0.0000000000000000000 ) ) ;
#165 = ORIENTED_EDGE ( 'NONE', *, *, #28, .F. ) ;
#166 = DIRECTION ( 'NONE',  ( 1.000000000000000000, 0.0000000000000000000, 0.0000000000000000000 ) ) ;
#167 = SECURITY_CLASSIFICATION_LEVEL ( 'unclassified' ) ;
#168 = COORDINATED_UNIVERSAL_TIME_OFFSET ( 6, 0, .BEHIND. ) ;
#169 = ORIENTED_EDGE ( 'NONE', *, *, #37, .T. ) ;
#170 = CARTESIAN_POINT ( 'NONE',  ( 0.0000000000000000000, 0.0000000000000000000, -0.4000000000000000200 ) ) ;
#171 = ADVANCED_BREP_SHAPE_REPRESENTATION ( '91100A101_Zinc-Plated Steel Oversized Washer', ( #97, #113 ), #125 ) ;
#172 = EDGE_LOOP ( 'NONE', ( #88, #165 ) ) ;
#173 = COORDINATED_UNIVERSAL_TIME_OFFSET ( 6, 0, .BEHIND. ) ;
#174 = PRODUCT_DEFINITION_SHAPE ( 'NONE', 'NONE',  #105 ) ;
#175 = CARTESIAN_POINT ( 'NONE',  ( -3.499999999999999600, 0.0000000000000000000, -0.4000000000000000200 ) ) ;
#176 = CARTESIAN_POINT ( 'NONE',  ( 0.0000000000000000000, 0.0000000000000000000, 0.4000000000000000200 ) ) ;
#177 = PERSON_AND_ORGANIZATION ( #132, #117 ) ;
#178 = CIRCLE ( 'NONE', #59, 3.499999999999999600 ) ;
#179 = CARTESIAN_POINT ( 'NONE',  ( 0.0000000000000000000, 0.0000000000000000000, 0.4000000000000000200 ) ) ;
#180 = EDGE_LOOP ( 'NONE', ( #135, #127, #229, #7 ) ) ;
#181 = EDGE_CURVE ( 'NONE', #121, #156, #55, .T. ) ;
#182 = DIRECTION ( 'NONE',  ( 1.000000000000000000, 0.0000000000000000000, 0.0000000000000000000 ) ) ;
#184 = APPROVAL_DATE_TIME ( #80, #205 ) ;
#183 = PERSON_AND_ORGANIZATION_ROLE ( 'creator' ) ;
#185 = AXIS2_PLACEMENT_3D ( 'NONE', #216, #133, #237 ) ;
#186 = EDGE_LOOP ( 'NONE', ( #86, #9 ) ) ;
#187 = LOCAL_TIME ( 9, 44, 44.00000000000000000, #173 ) ;
#188 = DATE_TIME_ROLE ( 'classification_date' ) ;
#189 = PERSON_AND_ORGANIZATION_ROLE ( 'classification_officer' ) ;
#190 = VECTOR ( 'NONE', #131, 1000.000000000000000 ) ;
#191 = PERSON_AND_ORGANIZATION ( #132, #117 ) ;
#192 = APPLICATION_PROTOCOL_DEFINITION ( 'international standard', 'config_control_design', 1994, #16 ) ;
#193 = DIRECTION ( 'NONE',  ( -1.000000000000000000, 0.0000000000000000000, 0.0000000000000000000 ) ) ;
#194 = CARTESIAN_POINT ( 'NONE',  ( 1.100000000000000300, 1.347111479062088700E-016, -0.4000000000000000200 ) ) ;
#195 = PRODUCT ( '91100A101_Zinc-Plated Steel Oversized Washer', '91100A101_Zinc-Plated Steel Oversized Washer', '', ( #94 ) ) ;
#196 = DIRECTION ( 'NONE',  ( 1.000000000000000000, 0.0000000000000000000, 0.0000000000000000000 ) ) ;
#197 = APPROVAL_ROLE ( '' ) ;
#198 = CLOSED_SHELL ( 'NONE', ( #78, #91, #19, #150, #248, #130 ) ) ;
#199 = CARTESIAN_POINT ( 'NONE',  ( 1.100000000000000300, 1.347111479062088700E-016, 0.4000000000000000200 ) ) ;
#200 = AXIS2_PLACEMENT_3D ( 'NONE', #214, #39, #56 ) ;
#201 = APPLICATION_PROTOCOL_DEFINITION ( 'international standard', 'config_control_design', 1994, #224 ) ;
#202 = CYLINDRICAL_SURFACE ( 'NONE', #215, 3.499999999999999600 ) ;
#203 = APPROVAL_ROLE ( '' ) ;
#204 = CARTESIAN_POINT ( 'NONE',  ( 0.0000000000000000000, 0.0000000000000000000, 0.4000000000000000200 ) ) ;
#205 = APPROVAL ( #234, 'UNSPECIFIED' ) ;
#206 = EDGE_LOOP ( 'NONE', ( #169, #230, #225, #152 ) ) ;
#207 = AXIS2_PLACEMENT_3D ( 'NONE', #204, #222, #83 ) ;
#208 = DIRECTION ( 'NONE',  ( 0.0000000000000000000, 0.0000000000000000000, 1.000000000000000000 ) ) ;
#209 = FACE_OUTER_BOUND ( 'NONE', #186, .T. ) ;
#210 = COORDINATED_UNIVERSAL_TIME_OFFSET ( 6, 0, .BEHIND. ) ;
#211 = EDGE_CURVE ( 'NONE', #245, #48, #49, .T. ) ;
#212 = ORIENTED_EDGE ( 'NONE', *, *, #37, .F. ) ;
#213 =( LENGTH_UNIT ( ) NAMED_UNIT ( * ) SI_UNIT ( .MILLI., .METRE. ) );
#214 = CARTESIAN_POINT ( 'NONE',  ( 0.0000000000000000000, 0.0000000000000000000, -0.4000000000000000200 ) ) ;
#215 = AXIS2_PLACEMENT_3D ( 'NONE', #176, #23, #65 ) ;
#216 = CARTESIAN_POINT ( 'NONE',  ( 0.0000000000000000000, 0.0000000000000000000, 0.4000000000000000200 ) ) ;
#217 = FACE_OUTER_BOUND ( 'NONE', #14, .T. ) ;
#218 = EDGE_CURVE ( 'NONE', #245, #156, #99, .T. ) ;
#219 = APPROVAL_DATE_TIME ( #84, #90 ) ;
#220 = CC_DESIGN_DATE_AND_TIME_ASSIGNMENT ( #241, #188, ( #27 ) ) ;
#221 = CARTESIAN_POINT ( 'NONE',  ( -1.100000000000000300, 0.0000000000000000000, -0.4000000000000000200 ) ) ;
#222 = DIRECTION ( 'NONE',  ( -0.0000000000000000000, -0.0000000000000000000, -1.000000000000000000 ) ) ;
#223 = ORIENTED_EDGE ( 'NONE', *, *, #218, .F. ) ;
#224 = APPLICATION_CONTEXT ( 'configuration controlled 3d designs of mechanical parts and assemblies' ) ;
#225 = ORIENTED_EDGE ( 'NONE', *, *, #181, .F. ) ;
#226 = AXIS2_PLACEMENT_3D ( 'NONE', #74, #144, #232 ) ;
#227 = DIRECTION ( 'NONE',  ( 0.0000000000000000000, 0.0000000000000000000, 1.000000000000000000 ) ) ;
#228 = CALENDAR_DATE ( 2024, 5, 6 ) ;
#229 = ORIENTED_EDGE ( 'NONE', *, *, #233, .T. ) ;
#230 = ORIENTED_EDGE ( 'NONE', *, *, #218, .T. ) ;
#231 = LOCAL_TIME ( 9, 44, 44.00000000000000000, #158 ) ;
#232 = DIRECTION ( 'NONE',  ( 1.000000000000000000, 0.0000000000000000000, 0.0000000000000000000 ) ) ;
#233 = EDGE_CURVE ( 'NONE', #161, #63, #8, .T. ) ;
#234 = APPROVAL_STATUS ( 'not_yet_approved' ) ;
#235 = CARTESIAN_POINT ( 'NONE',  ( -1.100000000000000300, 0.0000000000000000000, 0.4000000000000000200 ) ) ;
#236 = ORIENTED_EDGE ( 'NONE', *, *, #18, .F. ) ;
#237 = DIRECTION ( 'NONE',  ( 1.000000000000000000, 0.0000000000000000000, 0.0000000000000000000 ) ) ;
#238 = DIRECTION ( 'NONE',  ( -0.0000000000000000000, -0.0000000000000000000, -1.000000000000000000 ) ) ;
#239 = CARTESIAN_POINT ( 'NONE',  ( 0.0000000000000000000, 0.0000000000000000000, 0.4000000000000000200 ) ) ;
#240 = ORIENTED_EDGE ( 'NONE', *, *, #147, .F. ) ;
#241 = DATE_AND_TIME ( #124, #134 ) ;
#242 = CC_DESIGN_DATE_AND_TIME_ASSIGNMENT ( #93, #104, ( #105 ) ) ;
#243 = DIRECTION ( 'NONE',  ( 1.000000000000000000, 0.0000000000000000000, -0.0000000000000000000 ) ) ;
#244 = EDGE_CURVE ( 'NONE', #48, #121, #136, .T. ) ;
#245 = VERTEX_POINT ( 'NONE', #21 ) ;
#246 = LINE ( 'NONE', #4, #96 ) ;
#247 = AXIS2_PLACEMENT_3D ( 'NONE', #151, #81, #193 ) ;
#248 = ADVANCED_FACE ( 'NONE', ( #249 ), #45, .T. ) ;
#249 = FACE_OUTER_BOUND ( 'NONE', #180, .T. ) ;
ENDSEC;
END-ISO-10303-21;
