ISO-10303-21;
HEADER;
FILE_DESCRIPTION (( 'STEP AP203' ),
    '1' );
FILE_NAME ('9262K673_Oil-Resistant Buna-N O-Ring.STEP',
    '2022-09-30T18:56:04',
    ( 'Administrator' ),
    ( 'Managed by Terraform' ),
    'SwSTEP 2.0',
    'SolidWorks 2017',
    '' );
FILE_SCHEMA (( 'CONFIG_CONTROL_DESIGN' ));
ENDSEC;

DATA;
#1 = ORIENTED_EDGE ( 'NONE', *, *, #184, .F. ) ;
#2 = EDGE_CURVE ( 'NONE', #35, #121, #69, .T. ) ;
#3 = CC_DESIGN_DATE_AND_TIME_ASSIGNMENT ( #140, #47, ( #87 ) ) ;
#4 = LOCAL_TIME ( 13, 56, 4.000000000000000000, #98 ) ;
#5 = PRODUCT_RELATED_PRODUCT_CATEGORY ( 'detail', '', ( #11 ) ) ;
#6 = DIRECTION ( 'NONE',  ( -1.000000000000000000, 0.0000000000000000000, 3.061616997868382600E-016 ) ) ;
#7 = AXIS2_PLACEMENT_3D ( 'NONE', #22, #146, #162 ) ;
#8 = DIRECTION ( 'NONE',  ( -1.000000000000000000, 0.0000000000000000000, 3.061616997868382600E-016 ) ) ;
#9 = ADVANCED_FACE ( 'NONE', ( #187 ), #81, .T. ) ;
#10 = PERSON_AND_ORGANIZATION_ROLE ( 'creator' ) ;
#11 = PRODUCT ( '9262K673_Oil-Resistant Buna-N O-Ring', '9262K673_Oil-Resistant Buna-N O-Ring', '', ( #165 ) ) ;
#12 = CC_DESIGN_PERSON_AND_ORGANIZATION_ASSIGNMENT ( #130, #94, ( #11 ) ) ;
#13 = DIRECTION ( 'NONE',  ( -1.000000000000000000, 0.0000000000000000000, 3.061616997868383100E-016 ) ) ;
#14 = PERSON_AND_ORGANIZATION ( #118, #96 ) ;
#15 = ORIENTED_EDGE ( 'NONE', *, *, #28, .F. ) ;
#16 = CC_DESIGN_PERSON_AND_ORGANIZATION_ASSIGNMENT ( #30, #46, ( #53 ) ) ;
#17 = APPROVAL_STATUS ( 'not_yet_approved' ) ;
#18 = ORIENTED_EDGE ( 'NONE', *, *, #66, .F. ) ;
#19 = EDGE_CURVE ( 'NONE', #67, #143, #145, .T. ) ;
#20 = DIRECTION ( 'NONE',  ( 0.0000000000000000000, -1.000000000000000000, 0.0000000000000000000 ) ) ;
#21 = COORDINATED_UNIVERSAL_TIME_OFFSET ( 6, 0, .BEHIND. ) ;
#22 = CARTESIAN_POINT ( 'NONE',  ( 11.50000000000000000, 1.408343819019456200E-015, -5.141259559502541900E-017 ) ) ;
#23 = DIRECTION ( 'NONE',  ( -3.061616997868382600E-016, -0.0000000000000000000, -1.000000000000000000 ) ) ;
#24 = DATE_AND_TIME ( #76, #99 ) ;
#25 = CARTESIAN_POINT ( 'NONE',  ( -12.50000000000000000, 0.0000000000000000000, 7.296468199289093900E-015 ) ) ;
#26 = APPROVAL_STATUS ( 'not_yet_approved' ) ;
#27 = DIRECTION ( 'NONE',  ( 1.000000000000000000, 0.0000000000000000000, 0.0000000000000000000 ) ) ;
#28 = EDGE_CURVE ( 'NONE', #35, #143, #127, .T. ) ;
#29 = CIRCLE ( 'NONE', #57, 12.50000000000000000 ) ;
#30 = PERSON_AND_ORGANIZATION ( #118, #96 ) ;
#31 = DIRECTION ( 'NONE',  ( -1.000000000000000000, 0.0000000000000000000, 3.061616997868382600E-016 ) ) ;
#32 = ORIENTED_EDGE ( 'NONE', *, *, #180, .T. ) ;
#33 = CC_DESIGN_PERSON_AND_ORGANIZATION_ASSIGNMENT ( #90, #10, ( #87 ) ) ;
#34 = TOROIDAL_SURFACE ( 'NONE', #191, 11.50000000000000000, 1.000000000000001600 ) ;
#35 = VERTEX_POINT ( 'NONE', #153 ) ;
#36 = CC_DESIGN_SECURITY_CLASSIFICATION ( #65, ( #53 ) ) ;
#37 = PERSON_AND_ORGANIZATION ( #118, #96 ) ;
#38 = AXIS2_PLACEMENT_3D ( 'NONE', #178, #110, #13 ) ;
#39 = AXIS2_PLACEMENT_3D ( 'NONE', #74, #175, #43 ) ;
#40 = PERSON_AND_ORGANIZATION ( #118, #96 ) ;
#41 = ORIENTED_EDGE ( 'NONE', *, *, #2, .F. ) ;
#42 = DIRECTION ( 'NONE',  ( -3.061616997868382600E-016, -0.0000000000000000000, -1.000000000000000000 ) ) ;
#43 = DIRECTION ( 'NONE',  ( -1.000000000000000000, 0.0000000000000000000, 3.061616997868383100E-016 ) ) ;
#44 = CARTESIAN_POINT ( 'NONE',  ( 0.0000000000000000000, 0.0000000000000000000, 3.469446951953614200E-015 ) ) ;
#45 =( LENGTH_UNIT ( ) NAMED_UNIT ( * ) SI_UNIT ( .MILLI., .METRE. ) );
#46 = PERSON_AND_ORGANIZATION_ROLE ( 'creator' ) ;
#47 = DATE_TIME_ROLE ( 'creation_date' ) ;
#48 = AXIS2_PLACEMENT_3D ( 'NONE', #79, #176, #27 ) ;
#49 =( NAMED_UNIT ( * ) PLANE_ANGLE_UNIT ( ) SI_UNIT ( $, .RADIAN. ) );
#50 = CIRCLE ( 'NONE', #52, 12.50000000000000000 ) ;
#51 = LOCAL_TIME ( 13, 56, 4.000000000000000000, #59 ) ;
#52 = AXIS2_PLACEMENT_3D ( 'NONE', #149, #134, #104 ) ;
#53 = PRODUCT_DEFINITION_FORMATION_WITH_SPECIFIED_SOURCE ( 'ANY', '', #11, .NOT_KNOWN. ) ;
#54 = APPROVAL_PERSON_ORGANIZATION ( #14, #193, #106 ) ;
#55 = ORIENTED_EDGE ( 'NONE', *, *, #62, .T. ) ;
#56 = ADVANCED_FACE ( 'NONE', ( #183 ), #84, .T. ) ;
#57 = AXIS2_PLACEMENT_3D ( 'NONE', #44, #174, #58 ) ;
#58 = DIRECTION ( 'NONE',  ( -1.000000000000000000, 0.0000000000000000000, 3.061616997868383600E-016 ) ) ;
#59 = COORDINATED_UNIVERSAL_TIME_OFFSET ( 6, 0, .BEHIND. ) ;
#60 = SECURITY_CLASSIFICATION_LEVEL ( 'unclassified' ) ;
#61 = APPLICATION_PROTOCOL_DEFINITION ( 'international standard', 'config_control_design', 1994, #151 ) ;
#62 = EDGE_CURVE ( 'NONE', #121, #67, #29, .T. ) ;
#63 = CC_DESIGN_APPROVAL ( #157, ( #65 ) ) ;
#64 = CALENDAR_DATE ( 2022, 30, 9 ) ;
#65 = SECURITY_CLASSIFICATION ( '', '', #60 ) ;
#66 = EDGE_CURVE ( 'NONE', #143, #35, #89, .T. ) ;
#67 = VERTEX_POINT ( 'NONE', #189 ) ;
#68 = APPROVAL_PERSON_ORGANIZATION ( #109, #157, #159 ) ;
#69 = CIRCLE ( 'NONE', #160, 1.000000000000001600 ) ;
#70 = ORIENTED_EDGE ( 'NONE', *, *, #2, .T. ) ;
#71 = COORDINATED_UNIVERSAL_TIME_OFFSET ( 6, 0, .BEHIND. ) ;
#72 = EDGE_LOOP ( 'NONE', ( #158, #32, #185, #18 ) ) ;
#73 = CARTESIAN_POINT ( 'NONE',  ( -11.50000000000000000, 0.0000000000000000000, 6.990306499502252900E-015 ) ) ;
#74 = CARTESIAN_POINT ( 'NONE',  ( 3.749399456654649500E-032, 0.0000000000000000000, 3.591911631868350100E-015 ) ) ;
#75 = TOROIDAL_SURFACE ( 'NONE', #166, 11.50000000000000000, 1.000000000000001600 ) ;
#76 = CALENDAR_DATE ( 2022, 30, 9 ) ;
#77 = PERSON_AND_ORGANIZATION_ROLE ( 'classification_officer' ) ;
#78 = CARTESIAN_POINT ( 'NONE',  ( 0.0000000000000000000, 0.0000000000000000000, 3.469446951953614200E-015 ) ) ;
#79 = CARTESIAN_POINT ( 'NONE',  ( 0.0000000000000000000, 0.0000000000000000000, 0.0000000000000000000 ) ) ;
#80 = APPROVAL_DATE_TIME ( #186, #93 ) ;
#81 = TOROIDAL_SURFACE ( 'NONE', #131, 11.50000000000000000, 1.000000000000001600 ) ;
#82 = EDGE_CURVE ( 'NONE', #121, #35, #188, .T. ) ;
#83 = CALENDAR_DATE ( 2022, 30, 9 ) ;
#84 = TOROIDAL_SURFACE ( 'NONE', #85, 11.50000000000000000, 1.000000000000001600 ) ;
#85 = AXIS2_PLACEMENT_3D ( 'NONE', #102, #95, #31 ) ;
#86 = UNCERTAINTY_MEASURE_WITH_UNIT (LENGTH_MEASURE( 1.000000000000000100E-005 ), #45, 'distance_accuracy_value', 'NONE');
#87 = PRODUCT_DEFINITION ( 'UNKNOWN', '', #53, #112 ) ;
#88 =( NAMED_UNIT ( * ) SI_UNIT ( $, .STERADIAN. ) SOLID_ANGLE_UNIT ( ) );
#89 = CIRCLE ( 'NONE', #39, 10.49999999999999800 ) ;
#90 = PERSON_AND_ORGANIZATION ( #118, #96 ) ;
#91 = DIRECTION ( 'NONE',  ( 0.0000000000000000000, 0.0000000000000000000, -1.000000000000000000 ) ) ;
#92 = DIRECTION ( 'NONE',  ( -3.061616997868382600E-016, -0.0000000000000000000, -1.000000000000000000 ) ) ;
#93 = APPROVAL ( #124, 'UNSPECIFIED' ) ;
#94 = PERSON_AND_ORGANIZATION_ROLE ( 'design_owner' ) ;
#95 = DIRECTION ( 'NONE',  ( -3.061616997868382600E-016, -0.0000000000000000000, -1.000000000000000000 ) ) ;
#96 = ORGANIZATION ( 'UNSPECIFIED', 'UNSPECIFIED', '' ) ;
#97 = ORIENTED_EDGE ( 'NONE', *, *, #180, .F. ) ;
#98 = COORDINATED_UNIVERSAL_TIME_OFFSET ( 6, 0, .BEHIND. ) ;
#99 = LOCAL_TIME ( 13, 56, 4.000000000000000000, #21 ) ;
#100 =( GEOMETRIC_REPRESENTATION_CONTEXT ( 3 ) GLOBAL_UNCERTAINTY_ASSIGNED_CONTEXT ( ( #86 ) ) GLOBAL_UNIT_ASSIGNED_CONTEXT ( ( #45, #49, #88 ) ) REPRESENTATION_CONTEXT ( 'NONE', 'WORKASPACE' ) );
#101 = ORIENTED_EDGE ( 'NONE', *, *, #184, .T. ) ;
#102 = CARTESIAN_POINT ( 'NONE',  ( 0.0000000000000000000, 0.0000000000000000000, 3.469446951953614200E-015 ) ) ;
#103 = ADVANCED_FACE ( 'NONE', ( #128 ), #34, .T. ) ;
#104 = DIRECTION ( 'NONE',  ( -1.000000000000000000, 0.0000000000000000000, 3.061616997868383600E-016 ) ) ;
#105 = DIRECTION ( 'NONE',  ( -1.224646799147353200E-016, 1.000000000000000000, 3.749399456654643500E-032 ) ) ;
#106 = APPROVAL_ROLE ( '' ) ;
#107 = ORIENTED_EDGE ( 'NONE', *, *, #66, .T. ) ;
#108 = CC_DESIGN_APPROVAL ( #193, ( #87 ) ) ;
#109 = PERSON_AND_ORGANIZATION ( #118, #96 ) ;
#110 = DIRECTION ( 'NONE',  ( -3.061616997868382600E-016, -0.0000000000000000000, -1.000000000000000000 ) ) ;
#111 = ORIENTED_EDGE ( 'NONE', *, *, #19, .T. ) ;
#112 = DESIGN_CONTEXT ( 'detailed design', #167, 'design' ) ;
#113 = EDGE_LOOP ( 'NONE', ( #181, #55, #111, #15 ) ) ;
#114 = PERSON_AND_ORGANIZATION ( #118, #96 ) ;
#115 = ORIENTED_EDGE ( 'NONE', *, *, #28, .T. ) ;
#116 = FACE_OUTER_BOUND ( 'NONE', #171, .T. ) ;
#117 = SHAPE_DEFINITION_REPRESENTATION ( #177, #125 ) ;
#118 = PERSON ( 'UNSPECIFIED', 'UNSPECIFIED', 'UNSPECIFIED', ('UNSPECIFIED'), ('UNSPECIFIED'), ('UNSPECIFIED') ) ;
#119 = CC_DESIGN_PERSON_AND_ORGANIZATION_ASSIGNMENT ( #114, #77, ( #65 ) ) ;
#120 = LOCAL_TIME ( 13, 56, 4.000000000000000000, #156 ) ;
#121 = VERTEX_POINT ( 'NONE', #25 ) ;
#122 = DIRECTION ( 'NONE',  ( -1.000000000000000000, -1.224646799147353500E-016, 0.0000000000000000000 ) ) ;
#123 = DATE_TIME_ROLE ( 'classification_date' ) ;
#124 = APPROVAL_STATUS ( 'not_yet_approved' ) ;
#125 = ADVANCED_BREP_SHAPE_REPRESENTATION ( '9262K673_Oil-Resistant Buna-N O-Ring', ( #135, #48 ), #100 ) ;
#126 = APPLICATION_PROTOCOL_DEFINITION ( 'international standard', 'config_control_design', 1994, #167 ) ;
#127 = CIRCLE ( 'NONE', #38, 10.49999999999999800 ) ;
#128 = FACE_OUTER_BOUND ( 'NONE', #113, .T. ) ;
#129 = AXIS2_PLACEMENT_3D ( 'NONE', #148, #105, #122 ) ;
#130 = PERSON_AND_ORGANIZATION ( #118, #96 ) ;
#131 = AXIS2_PLACEMENT_3D ( 'NONE', #161, #42, #6 ) ;
#132 = DIRECTION ( 'NONE',  ( 0.0000000000000000000, 0.0000000000000000000, -1.000000000000000000 ) ) ;
#133 = CARTESIAN_POINT ( 'NONE',  ( -11.50000000000000000, 0.0000000000000000000, 6.990306499502252900E-015 ) ) ;
#134 = DIRECTION ( 'NONE',  ( -3.061616997868382600E-016, -0.0000000000000000000, -1.000000000000000000 ) ) ;
#135 = MANIFOLD_SOLID_BREP ( 'Revolve1', #154 ) ;
#136 = APPROVAL_ROLE ( '' ) ;
#137 = EDGE_LOOP ( 'NONE', ( #97, #1, #107, #70 ) ) ;
#138 = CC_DESIGN_DATE_AND_TIME_ASSIGNMENT ( #144, #123, ( #65 ) ) ;
#139 = DIRECTION ( 'NONE',  ( -1.000000000000000000, 0.0000000000000000000, 3.061616997868382600E-016 ) ) ;
#140 = DATE_AND_TIME ( #64, #4 ) ;
#141 = ORIENTED_EDGE ( 'NONE', *, *, #62, .F. ) ;
#142 = AXIS2_PLACEMENT_3D ( 'NONE', #133, #163, #91 ) ;
#143 = VERTEX_POINT ( 'NONE', #164 ) ;
#144 = DATE_AND_TIME ( #83, #182 ) ;
#145 = CIRCLE ( 'NONE', #7, 1.000000000000000900 ) ;
#146 = DIRECTION ( 'NONE',  ( -1.224646799147353200E-016, 1.000000000000000000, 3.749399456654643500E-032 ) ) ;
#147 = CARTESIAN_POINT ( 'NONE',  ( 0.0000000000000000000, 0.0000000000000000000, 3.469446951953614200E-015 ) ) ;
#148 = CARTESIAN_POINT ( 'NONE',  ( 11.50000000000000000, 1.408343819019456200E-015, -5.141259559502541900E-017 ) ) ;
#149 = CARTESIAN_POINT ( 'NONE',  ( 0.0000000000000000000, 0.0000000000000000000, 3.469446951953614200E-015 ) ) ;
#150 = PERSON_AND_ORGANIZATION_ROLE ( 'design_supplier' ) ;
#151 = APPLICATION_CONTEXT ( 'configuration controlled 3d designs of mechanical parts and assemblies' ) ;
#152 = CALENDAR_DATE ( 2022, 30, 9 ) ;
#153 = CARTESIAN_POINT ( 'NONE',  ( -10.49999999999999800, 0.0000000000000000000, 3.591911631868347800E-015 ) ) ;
#154 = CLOSED_SHELL ( 'NONE', ( #56, #103, #172, #9 ) ) ;
#155 = CIRCLE ( 'NONE', #129, 1.000000000000000900 ) ;
#156 = COORDINATED_UNIVERSAL_TIME_OFFSET ( 6, 0, .BEHIND. ) ;
#157 = APPROVAL ( #17, 'UNSPECIFIED' ) ;
#158 = ORIENTED_EDGE ( 'NONE', *, *, #19, .F. ) ;
#159 = APPROVAL_ROLE ( '' ) ;
#160 = AXIS2_PLACEMENT_3D ( 'NONE', #73, #20, #132 ) ;
#161 = CARTESIAN_POINT ( 'NONE',  ( 0.0000000000000000000, 0.0000000000000000000, 3.469446951953614200E-015 ) ) ;
#162 = DIRECTION ( 'NONE',  ( -1.000000000000000000, -1.224646799147353500E-016, 0.0000000000000000000 ) ) ;
#163 = DIRECTION ( 'NONE',  ( 0.0000000000000000000, -1.000000000000000000, 0.0000000000000000000 ) ) ;
#164 = CARTESIAN_POINT ( 'NONE',  ( 10.49999999999999800, 1.285879139104720600E-015, -5.141259559502541900E-017 ) ) ;
#165 = MECHANICAL_CONTEXT ( 'NONE', #151, 'mechanical' ) ;
#166 = AXIS2_PLACEMENT_3D ( 'NONE', #78, #92, #8 ) ;
#167 = APPLICATION_CONTEXT ( 'configuration controlled 3d designs of mechanical parts and assemblies' ) ;
#168 = APPROVAL_DATE_TIME ( #169, #193 ) ;
#169 = DATE_AND_TIME ( #173, #51 ) ;
#170 = CC_DESIGN_APPROVAL ( #93, ( #53 ) ) ;
#171 = EDGE_LOOP ( 'NONE', ( #141, #41, #115, #101 ) ) ;
#172 = ADVANCED_FACE ( 'NONE', ( #116 ), #75, .T. ) ;
#173 = CALENDAR_DATE ( 2022, 30, 9 ) ;
#174 = DIRECTION ( 'NONE',  ( -3.061616997868382600E-016, -0.0000000000000000000, -1.000000000000000000 ) ) ;
#175 = DIRECTION ( 'NONE',  ( -3.061616997868382600E-016, -0.0000000000000000000, -1.000000000000000000 ) ) ;
#176 = DIRECTION ( 'NONE',  ( 0.0000000000000000000, 0.0000000000000000000, 1.000000000000000000 ) ) ;
#177 = PRODUCT_DEFINITION_SHAPE ( 'NONE', 'NONE',  #87 ) ;
#178 = CARTESIAN_POINT ( 'NONE',  ( 3.749399456654649500E-032, 0.0000000000000000000, 3.591911631868350100E-015 ) ) ;
#179 = APPROVAL_DATE_TIME ( #24, #157 ) ;
#180 = EDGE_CURVE ( 'NONE', #67, #121, #50, .T. ) ;
#181 = ORIENTED_EDGE ( 'NONE', *, *, #82, .F. ) ;
#182 = LOCAL_TIME ( 13, 56, 4.000000000000000000, #71 ) ;
#183 = FACE_OUTER_BOUND ( 'NONE', #72, .T. ) ;
#184 = EDGE_CURVE ( 'NONE', #143, #67, #155, .T. ) ;
#185 = ORIENTED_EDGE ( 'NONE', *, *, #82, .T. ) ;
#186 = DATE_AND_TIME ( #152, #120 ) ;
#187 = FACE_OUTER_BOUND ( 'NONE', #137, .T. ) ;
#188 = CIRCLE ( 'NONE', #142, 1.000000000000001600 ) ;
#189 = CARTESIAN_POINT ( 'NONE',  ( 12.50000000000000000, 1.530808498934191500E-015, -3.575742953818643700E-016 ) ) ;
#190 = CC_DESIGN_PERSON_AND_ORGANIZATION_ASSIGNMENT ( #37, #150, ( #53 ) ) ;
#191 = AXIS2_PLACEMENT_3D ( 'NONE', #147, #23, #139 ) ;
#192 = APPROVAL_PERSON_ORGANIZATION ( #40, #93, #136 ) ;
#193 = APPROVAL ( #26, 'UNSPECIFIED' ) ;
ENDSEC;
END-ISO-10303-21;
