ISO-10303-21;
HEADER;
FILE_DESCRIPTION (( 'STEP AP203' ),
    '1' );
FILE_NAME ('93475A195_18-8 Stainless Steel Washer.STEP',
    '2021-09-09T01:13:36',
    ( 'Administrator' ),
    ( 'Managed by Terraform' ),
    'SwSTEP 2.0',
    'SolidWorks 2017',
    '' );
FILE_SCHEMA (( 'CONFIG_CONTROL_DESIGN' ));
ENDSEC;

DATA;
#1 = CC_DESIGN_DATE_AND_TIME_ASSIGNMENT ( #112, #96, ( #196 ) ) ;
#2 = CARTESIAN_POINT ( 'NONE',  ( 0.0000000000000000000, 0.0000000000000000000, 0.0000000000000000000 ) ) ;
#3 = CIRCLE ( 'NONE', #186, 1.100000000000000100 ) ;
#4 = APPLICATION_PROTOCOL_DEFINITION ( 'international standard', 'config_control_design', 1994, #19 ) ;
#5 = CARTESIAN_POINT ( 'NONE',  ( -2.500000000000000000, 0.0000000000000000000, 0.4000000000000000200 ) ) ;
#6 = ORIENTED_EDGE ( 'NONE', *, *, #163, .T. ) ;
#7 = PRODUCT_DEFINITION_FORMATION_WITH_SPECIFIED_SOURCE ( 'ANY', '', #222, .NOT_KNOWN. ) ;
#8 = FACE_OUTER_BOUND ( 'NONE', #28, .T. ) ;
#9 =( GEOMETRIC_REPRESENTATION_CONTEXT ( 3 ) GLOBAL_UNCERTAINTY_ASSIGNED_CONTEXT ( ( #17 ) ) GLOBAL_UNIT_ASSIGNED_CONTEXT ( ( #77, #58, #193 ) ) REPRESENTATION_CONTEXT ( 'NONE', 'WORKASPACE' ) );
#10 = LINE ( 'NONE', #183, #59 ) ;
#11 = DIRECTION ( 'NONE',  ( 0.0000000000000000000, 0.0000000000000000000, 1.000000000000000000 ) ) ;
#12 = EDGE_CURVE ( 'NONE', #144, #236, #104, .T. ) ;
#13 = EDGE_LOOP ( 'NONE', ( #241, #82, #45, #175 ) ) ;
#14 = CARTESIAN_POINT ( 'NONE',  ( -2.500000000000000000, 0.0000000000000000000, 0.4000000000000000200 ) ) ;
#15 = AXIS2_PLACEMENT_3D ( 'NONE', #128, #246, #203 ) ;
#16 = APPROVAL_PERSON_ORGANIZATION ( #181, #133, #21 ) ;
#17 = UNCERTAINTY_MEASURE_WITH_UNIT (LENGTH_MEASURE( 1.000000000000000100E-005 ), #77, 'distance_accuracy_value', 'NONE');
#18 = LOCAL_TIME ( 20, 13, 36.00000000000000000, #62 ) ;
#19 = APPLICATION_CONTEXT ( 'configuration controlled 3d designs of mechanical parts and assemblies' ) ;
#20 = VERTEX_POINT ( 'NONE', #160 ) ;
#21 = APPROVAL_ROLE ( '' ) ;
#22 = AXIS2_PLACEMENT_3D ( 'NONE', #50, #91, #164 ) ;
#23 = VECTOR ( 'NONE', #64, 1000.000000000000000 ) ;
#24 = CC_DESIGN_DATE_AND_TIME_ASSIGNMENT ( #154, #155, ( #124 ) ) ;
#25 = ORGANIZATION ( 'UNSPECIFIED', 'UNSPECIFIED', '' ) ;
#26 = ORIENTED_EDGE ( 'NONE', *, *, #149, .T. ) ;
#27 = EDGE_LOOP ( 'NONE', ( #55, #86 ) ) ;
#28 = EDGE_LOOP ( 'NONE', ( #106, #105, #159, #249 ) ) ;
#29 = APPROVAL_DATE_TIME ( #192, #220 ) ;
#30 = LOCAL_TIME ( 20, 13, 36.00000000000000000, #95 ) ;
#31 = DIRECTION ( 'NONE',  ( 0.0000000000000000000, 0.0000000000000000000, 1.000000000000000000 ) ) ;
#32 = AXIS2_PLACEMENT_3D ( 'NONE', #51, #31, #76 ) ;
#33 = DIRECTION ( 'NONE',  ( -1.000000000000000000, 0.0000000000000000000, 0.0000000000000000000 ) ) ;
#34 = DIRECTION ( 'NONE',  ( -0.0000000000000000000, -0.0000000000000000000, -1.000000000000000000 ) ) ;
#35 = CIRCLE ( 'NONE', #22, 2.500000000000000000 ) ;
#36 = APPROVAL_STATUS ( 'not_yet_approved' ) ;
#37 = PERSON_AND_ORGANIZATION ( #110, #25 ) ;
#38 = APPROVAL_ROLE ( '' ) ;
#39 = PERSON_AND_ORGANIZATION_ROLE ( 'design_owner' ) ;
#40 = EDGE_LOOP ( 'NONE', ( #231, #216, #61, #166 ) ) ;
#41 = CC_DESIGN_PERSON_AND_ORGANIZATION_ASSIGNMENT ( #37, #169, ( #7 ) ) ;
#42 = CIRCLE ( 'NONE', #173, 2.500000000000000000 ) ;
#43 = EDGE_CURVE ( 'NONE', #144, #234, #136, .T. ) ;
#44 = VERTEX_POINT ( 'NONE', #195 ) ;
#45 = ORIENTED_EDGE ( 'NONE', *, *, #71, .T. ) ;
#46 = AXIS2_PLACEMENT_3D ( 'NONE', #56, #57, #168 ) ;
#47 = EDGE_LOOP ( 'NONE', ( #131, #210 ) ) ;
#48 = ADVANCED_FACE ( 'NONE', ( #170 ), #185, .F. ) ;
#49 = DIRECTION ( 'NONE',  ( -1.000000000000000000, 0.0000000000000000000, 0.0000000000000000000 ) ) ;
#50 = CARTESIAN_POINT ( 'NONE',  ( 0.0000000000000000000, 0.0000000000000000000, 0.0000000000000000000 ) ) ;
#51 = CARTESIAN_POINT ( 'NONE',  ( 0.0000000000000000000, 0.0000000000000000000, 0.0000000000000000000 ) ) ;
#52 = CYLINDRICAL_SURFACE ( 'NONE', #229, 2.500000000000000000 ) ;
#53 = CC_DESIGN_PERSON_AND_ORGANIZATION_ASSIGNMENT ( #240, #172, ( #7 ) ) ;
#54 = DIRECTION ( 'NONE',  ( -0.0000000000000000000, -0.0000000000000000000, -1.000000000000000000 ) ) ;
#55 = ORIENTED_EDGE ( 'NONE', *, *, #217, .F. ) ;
#56 = CARTESIAN_POINT ( 'NONE',  ( 0.0000000000000000000, 0.0000000000000000000, 0.4000000000000000200 ) ) ;
#57 = DIRECTION ( 'NONE',  ( 0.0000000000000000000, 0.0000000000000000000, 1.000000000000000000 ) ) ;
#58 =( NAMED_UNIT ( * ) PLANE_ANGLE_UNIT ( ) SI_UNIT ( $, .RADIAN. ) );
#59 = VECTOR ( 'NONE', #130, 1000.000000000000000 ) ;
#60 = AXIS2_PLACEMENT_3D ( 'NONE', #184, #34, #212 ) ;
#61 = ORIENTED_EDGE ( 'NONE', *, *, #149, .F. ) ;
#62 = COORDINATED_UNIVERSAL_TIME_OFFSET ( 6, 0, .BEHIND. ) ;
#63 = VERTEX_POINT ( 'NONE', #127 ) ;
#64 = DIRECTION ( 'NONE',  ( -0.0000000000000000000, -0.0000000000000000000, -1.000000000000000000 ) ) ;
#65 = LOCAL_TIME ( 20, 13, 36.00000000000000000, #118 ) ;
#66 = FACE_OUTER_BOUND ( 'NONE', #89, .T. ) ;
#67 = EDGE_CURVE ( 'NONE', #234, #228, #92, .T. ) ;
#68 = CALENDAR_DATE ( 2021, 8, 9 ) ;
#69 = ADVANCED_FACE ( 'NONE', ( #204, #201 ), #111, .F. ) ;
#70 = CARTESIAN_POINT ( 'NONE',  ( 0.0000000000000000000, 0.0000000000000000000, 0.4000000000000000200 ) ) ;
#71 = EDGE_CURVE ( 'NONE', #44, #120, #10, .T. ) ;
#72 = LINE ( 'NONE', #235, #142 ) ;
#73 = AXIS2_PLACEMENT_3D ( 'NONE', #80, #99, #121 ) ;
#74 = PERSON_AND_ORGANIZATION ( #110, #25 ) ;
#75 = DESIGN_CONTEXT ( 'detailed design', #189, 'design' ) ;
#76 = DIRECTION ( 'NONE',  ( 1.000000000000000000, 0.0000000000000000000, 0.0000000000000000000 ) ) ;
#77 =( LENGTH_UNIT ( ) NAMED_UNIT ( * ) SI_UNIT ( .MILLI., .METRE. ) );
#78 = FACE_BOUND ( 'NONE', #27, .T. ) ;
#79 = SECURITY_CLASSIFICATION_LEVEL ( 'unclassified' ) ;
#80 = CARTESIAN_POINT ( 'NONE',  ( 0.0000000000000000000, 0.0000000000000000000, 0.0000000000000000000 ) ) ;
#81 = AXIS2_PLACEMENT_3D ( 'NONE', #227, #199, #178 ) ;
#82 = ORIENTED_EDGE ( 'NONE', *, *, #141, .T. ) ;
#83 = DIRECTION ( 'NONE',  ( 1.000000000000000000, 0.0000000000000000000, 0.0000000000000000000 ) ) ;
#84 = FACE_OUTER_BOUND ( 'NONE', #47, .T. ) ;
#85 = EDGE_CURVE ( 'NONE', #228, #236, #35, .T. ) ;
#86 = ORIENTED_EDGE ( 'NONE', *, *, #141, .F. ) ;
#87 = APPROVAL_PERSON_ORGANIZATION ( #188, #220, #38 ) ;
#88 = CC_DESIGN_APPROVAL ( #133, ( #124 ) ) ;
#89 = EDGE_LOOP ( 'NONE', ( #180, #187, #113, #245 ) ) ;
#90 = ADVANCED_FACE ( 'NONE', ( #8 ), #52, .T. ) ;
#91 = DIRECTION ( 'NONE',  ( 0.0000000000000000000, 0.0000000000000000000, 1.000000000000000000 ) ) ;
#92 = LINE ( 'NONE', #14, #109 ) ;
#93 = CIRCLE ( 'NONE', #73, 1.100000000000000100 ) ;
#94 = APPLICATION_PROTOCOL_DEFINITION ( 'international standard', 'config_control_design', 1994, #189 ) ;
#95 = COORDINATED_UNIVERSAL_TIME_OFFSET ( 6, 0, .BEHIND. ) ;
#96 = DATE_TIME_ROLE ( 'classification_date' ) ;
#97 = EDGE_CURVE ( 'NONE', #234, #144, #151, .T. ) ;
#98 = APPROVAL_ROLE ( '' ) ;
#99 = DIRECTION ( 'NONE',  ( 0.0000000000000000000, 0.0000000000000000000, 1.000000000000000000 ) ) ;
#100 = AXIS2_PLACEMENT_3D ( 'NONE', #115, #211, #33 ) ;
#101 = PERSON_AND_ORGANIZATION ( #110, #25 ) ;
#102 = DIRECTION ( 'NONE',  ( 1.000000000000000000, 0.0000000000000000000, 0.0000000000000000000 ) ) ;
#103 = APPROVAL ( #215, 'UNSPECIFIED' ) ;
#104 = LINE ( 'NONE', #140, #23 ) ;
#105 = ORIENTED_EDGE ( 'NONE', *, *, #12, .T. ) ;
#106 = ORIENTED_EDGE ( 'NONE', *, *, #43, .F. ) ;
#107 = CARTESIAN_POINT ( 'NONE',  ( 0.0000000000000000000, 0.0000000000000000000, 0.4000000000000000200 ) ) ;
#108 = CALENDAR_DATE ( 2021, 8, 9 ) ;
#109 = VECTOR ( 'NONE', #225, 1000.000000000000000 ) ;
#110 = PERSON ( 'UNSPECIFIED', 'UNSPECIFIED', 'UNSPECIFIED', ('UNSPECIFIED'), ('UNSPECIFIED'), ('UNSPECIFIED') ) ;
#111 = PLANE ( 'NONE',  #15 ) ;
#112 = DATE_AND_TIME ( #214, #65 ) ;
#113 = ORIENTED_EDGE ( 'NONE', *, *, #67, .T. ) ;
#114 = ORIENTED_EDGE ( 'NONE', *, *, #182, .F. ) ;
#115 = CARTESIAN_POINT ( 'NONE',  ( 0.0000000000000000000, 0.0000000000000000000, 0.4000000000000000200 ) ) ;
#116 = CARTESIAN_POINT ( 'NONE',  ( 0.0000000000000000000, 0.0000000000000000000, 0.0000000000000000000 ) ) ;
#117 = CARTESIAN_POINT ( 'NONE',  ( 2.500000000000000000, 3.061616997868383100E-016, 0.0000000000000000000 ) ) ;
#118 = COORDINATED_UNIVERSAL_TIME_OFFSET ( 6, 0, .BEHIND. ) ;
#119 = SHAPE_DEFINITION_REPRESENTATION ( #208, #243 ) ;
#120 = VERTEX_POINT ( 'NONE', #206 ) ;
#121 = DIRECTION ( 'NONE',  ( 1.000000000000000000, 0.0000000000000000000, 0.0000000000000000000 ) ) ;
#122 = DIRECTION ( 'NONE',  ( 1.000000000000000000, 0.0000000000000000000, 0.0000000000000000000 ) ) ;
#123 = MANIFOLD_SOLID_BREP ( 'Boss-Extrude1', #162 ) ;
#124 = PRODUCT_DEFINITION ( 'UNKNOWN', '', #7, #75 ) ;
#125 = LOCAL_TIME ( 20, 13, 36.00000000000000000, #238 ) ;
#126 = DIRECTION ( 'NONE',  ( -0.0000000000000000000, -0.0000000000000000000, -1.000000000000000000 ) ) ;
#127 = CARTESIAN_POINT ( 'NONE',  ( 1.100000000000000100, 1.347111479062088500E-016, 0.4000000000000000200 ) ) ;
#128 = CARTESIAN_POINT ( 'NONE',  ( 0.0000000000000000000, 0.0000000000000000000, 0.0000000000000000000 ) ) ;
#129 = PERSON_AND_ORGANIZATION ( #110, #25 ) ;
#130 = DIRECTION ( 'NONE',  ( -0.0000000000000000000, -0.0000000000000000000, -1.000000000000000000 ) ) ;
#131 = ORIENTED_EDGE ( 'NONE', *, *, #97, .T. ) ;
#132 = PERSON_AND_ORGANIZATION ( #110, #25 ) ;
#133 = APPROVAL ( #36, 'UNSPECIFIED' ) ;
#134 = DIRECTION ( 'NONE',  ( 0.0000000000000000000, 0.0000000000000000000, 1.000000000000000000 ) ) ;
#135 = APPROVAL_STATUS ( 'not_yet_approved' ) ;
#136 = CIRCLE ( 'NONE', #176, 2.500000000000000000 ) ;
#137 = MECHANICAL_CONTEXT ( 'NONE', #19, 'mechanical' ) ;
#138 = DIRECTION ( 'NONE',  ( 0.0000000000000000000, 0.0000000000000000000, 1.000000000000000000 ) ) ;
#139 = CIRCLE ( 'NONE', #81, 1.100000000000000100 ) ;
#140 = CARTESIAN_POINT ( 'NONE',  ( 2.500000000000000000, 3.061616997868383100E-016, 0.4000000000000000200 ) ) ;
#141 = EDGE_CURVE ( 'NONE', #63, #44, #139, .T. ) ;
#142 = VECTOR ( 'NONE', #54, 1000.000000000000000 ) ;
#143 = DIRECTION ( 'NONE',  ( -1.000000000000000000, 0.0000000000000000000, 0.0000000000000000000 ) ) ;
#144 = VERTEX_POINT ( 'NONE', #167 ) ;
#145 = CC_DESIGN_PERSON_AND_ORGANIZATION_ASSIGNMENT ( #132, #191, ( #196 ) ) ;
#146 = CYLINDRICAL_SURFACE ( 'NONE', #60, 1.100000000000000100 ) ;
#147 = ADVANCED_FACE ( 'NONE', ( #198 ), #146, .F. ) ;
#148 = DIRECTION ( 'NONE',  ( -0.0000000000000000000, -0.0000000000000000000, -1.000000000000000000 ) ) ;
#149 = EDGE_CURVE ( 'NONE', #120, #20, #157, .T. ) ;
#150 = PLANE ( 'NONE',  #46 ) ;
#151 = CIRCLE ( 'NONE', #224, 2.500000000000000000 ) ;
#152 = DIRECTION ( 'NONE',  ( 1.000000000000000000, 0.0000000000000000000, 0.0000000000000000000 ) ) ;
#153 = CC_DESIGN_APPROVAL ( #220, ( #7 ) ) ;
#154 = DATE_AND_TIME ( #207, #125 ) ;
#155 = DATE_TIME_ROLE ( 'creation_date' ) ;
#156 = DIRECTION ( 'NONE',  ( 0.0000000000000000000, 0.0000000000000000000, 1.000000000000000000 ) ) ;
#157 = CIRCLE ( 'NONE', #32, 1.100000000000000100 ) ;
#158 = CARTESIAN_POINT ( 'NONE',  ( 0.0000000000000000000, 0.0000000000000000000, 0.4000000000000000200 ) ) ;
#159 = ORIENTED_EDGE ( 'NONE', *, *, #182, .T. ) ;
#160 = CARTESIAN_POINT ( 'NONE',  ( 1.100000000000000100, 1.347111479062088500E-016, 0.0000000000000000000 ) ) ;
#161 = CYLINDRICAL_SURFACE ( 'NONE', #100, 2.500000000000000000 ) ;
#162 = CLOSED_SHELL ( 'NONE', ( #147, #90, #226, #69, #244, #48 ) ) ;
#163 = EDGE_CURVE ( 'NONE', #20, #120, #93, .T. ) ;
#164 = DIRECTION ( 'NONE',  ( 1.000000000000000000, 0.0000000000000000000, 0.0000000000000000000 ) ) ;
#165 = ORIENTED_EDGE ( 'NONE', *, *, #85, .F. ) ;
#166 = ORIENTED_EDGE ( 'NONE', *, *, #71, .F. ) ;
#167 = CARTESIAN_POINT ( 'NONE',  ( 2.500000000000000000, 3.061616997868383100E-016, 0.4000000000000000200 ) ) ;
#168 = DIRECTION ( 'NONE',  ( 1.000000000000000000, 0.0000000000000000000, -0.0000000000000000000 ) ) ;
#169 = PERSON_AND_ORGANIZATION_ROLE ( 'creator' ) ;
#170 = FACE_OUTER_BOUND ( 'NONE', #13, .T. ) ;
#171 = CARTESIAN_POINT ( 'NONE',  ( -2.500000000000000000, 0.0000000000000000000, 0.0000000000000000000 ) ) ;
#172 = PERSON_AND_ORGANIZATION_ROLE ( 'design_supplier' ) ;
#173 = AXIS2_PLACEMENT_3D ( 'NONE', #2, #134, #152 ) ;
#174 = COORDINATED_UNIVERSAL_TIME_OFFSET ( 6, 0, .BEHIND. ) ;
#175 = ORIENTED_EDGE ( 'NONE', *, *, #163, .F. ) ;
#176 = AXIS2_PLACEMENT_3D ( 'NONE', #197, #179, #83 ) ;
#177 = DATE_AND_TIME ( #108, #18 ) ;
#178 = DIRECTION ( 'NONE',  ( 1.000000000000000000, 0.0000000000000000000, 0.0000000000000000000 ) ) ;
#179 = DIRECTION ( 'NONE',  ( 0.0000000000000000000, 0.0000000000000000000, 1.000000000000000000 ) ) ;
#180 = ORIENTED_EDGE ( 'NONE', *, *, #12, .F. ) ;
#181 = PERSON_AND_ORGANIZATION ( #110, #25 ) ;
#182 = EDGE_CURVE ( 'NONE', #236, #228, #42, .T. ) ;
#183 = CARTESIAN_POINT ( 'NONE',  ( -1.100000000000000100, 0.0000000000000000000, 0.4000000000000000200 ) ) ;
#184 = CARTESIAN_POINT ( 'NONE',  ( 0.0000000000000000000, 0.0000000000000000000, 0.4000000000000000200 ) ) ;
#185 = CYLINDRICAL_SURFACE ( 'NONE', #209, 1.100000000000000100 ) ;
#186 = AXIS2_PLACEMENT_3D ( 'NONE', #237, #156, #122 ) ;
#187 = ORIENTED_EDGE ( 'NONE', *, *, #97, .F. ) ;
#188 = PERSON_AND_ORGANIZATION ( #110, #25 ) ;
#189 = APPLICATION_CONTEXT ( 'configuration controlled 3d designs of mechanical parts and assemblies' ) ;
#190 = CC_DESIGN_APPROVAL ( #103, ( #196 ) ) ;
#191 = PERSON_AND_ORGANIZATION_ROLE ( 'classification_officer' ) ;
#192 = DATE_AND_TIME ( #239, #30 ) ;
#193 =( NAMED_UNIT ( * ) SI_UNIT ( $, .STERADIAN. ) SOLID_ANGLE_UNIT ( ) );
#194 = EDGE_LOOP ( 'NONE', ( #26, #6 ) ) ;
#195 = CARTESIAN_POINT ( 'NONE',  ( -1.100000000000000100, 0.0000000000000000000, 0.4000000000000000200 ) ) ;
#196 = SECURITY_CLASSIFICATION ( '', '', #79 ) ;
#197 = CARTESIAN_POINT ( 'NONE',  ( 0.0000000000000000000, 0.0000000000000000000, 0.4000000000000000200 ) ) ;
#198 = FACE_OUTER_BOUND ( 'NONE', #40, .T. ) ;
#199 = DIRECTION ( 'NONE',  ( 0.0000000000000000000, 0.0000000000000000000, 1.000000000000000000 ) ) ;
#200 = APPROVAL_PERSON_ORGANIZATION ( #101, #103, #98 ) ;
#201 = FACE_BOUND ( 'NONE', #194, .T. ) ;
#202 = CC_DESIGN_PERSON_AND_ORGANIZATION_ASSIGNMENT ( #74, #39, ( #222 ) ) ;
#203 = DIRECTION ( 'NONE',  ( 1.000000000000000000, 0.0000000000000000000, -0.0000000000000000000 ) ) ;
#204 = FACE_OUTER_BOUND ( 'NONE', #221, .T. ) ;
#205 = CC_DESIGN_SECURITY_CLASSIFICATION ( #196, ( #7 ) ) ;
#206 = CARTESIAN_POINT ( 'NONE',  ( -1.100000000000000100, 0.0000000000000000000, 0.0000000000000000000 ) ) ;
#207 = CALENDAR_DATE ( 2021, 8, 9 ) ;
#208 = PRODUCT_DEFINITION_SHAPE ( 'NONE', 'NONE',  #124 ) ;
#209 = AXIS2_PLACEMENT_3D ( 'NONE', #158, #126, #143 ) ;
#210 = ORIENTED_EDGE ( 'NONE', *, *, #43, .T. ) ;
#211 = DIRECTION ( 'NONE',  ( -0.0000000000000000000, -0.0000000000000000000, -1.000000000000000000 ) ) ;
#212 = DIRECTION ( 'NONE',  ( -1.000000000000000000, 0.0000000000000000000, 0.0000000000000000000 ) ) ;
#213 = DIRECTION ( 'NONE',  ( 1.000000000000000000, 0.0000000000000000000, 0.0000000000000000000 ) ) ;
#214 = CALENDAR_DATE ( 2021, 8, 9 ) ;
#215 = APPROVAL_STATUS ( 'not_yet_approved' ) ;
#216 = ORIENTED_EDGE ( 'NONE', *, *, #233, .T. ) ;
#217 = EDGE_CURVE ( 'NONE', #44, #63, #3, .T. ) ;
#218 = LOCAL_TIME ( 20, 13, 36.00000000000000000, #174 ) ;
#219 = PRODUCT_RELATED_PRODUCT_CATEGORY ( 'detail', '', ( #222 ) ) ;
#220 = APPROVAL ( #135, 'UNSPECIFIED' ) ;
#221 = EDGE_LOOP ( 'NONE', ( #165, #114 ) ) ;
#222 = PRODUCT ( '93475A195_18-8 Stainless Steel Washer', '93475A195_18-8 Stainless Steel Washer', '', ( #137 ) ) ;
#223 = DATE_AND_TIME ( #68, #218 ) ;
#224 = AXIS2_PLACEMENT_3D ( 'NONE', #107, #11, #102 ) ;
#225 = DIRECTION ( 'NONE',  ( -0.0000000000000000000, -0.0000000000000000000, -1.000000000000000000 ) ) ;
#226 = ADVANCED_FACE ( 'NONE', ( #84, #78 ), #150, .T. ) ;
#227 = CARTESIAN_POINT ( 'NONE',  ( 0.0000000000000000000, 0.0000000000000000000, 0.4000000000000000200 ) ) ;
#228 = VERTEX_POINT ( 'NONE', #171 ) ;
#229 = AXIS2_PLACEMENT_3D ( 'NONE', #70, #148, #49 ) ;
#230 = APPROVAL_DATE_TIME ( #223, #133 ) ;
#231 = ORIENTED_EDGE ( 'NONE', *, *, #217, .T. ) ;
#232 = PERSON_AND_ORGANIZATION_ROLE ( 'creator' ) ;
#233 = EDGE_CURVE ( 'NONE', #63, #20, #72, .T. ) ;
#234 = VERTEX_POINT ( 'NONE', #5 ) ;
#235 = CARTESIAN_POINT ( 'NONE',  ( 1.100000000000000100, 1.347111479062088500E-016, 0.4000000000000000200 ) ) ;
#236 = VERTEX_POINT ( 'NONE', #117 ) ;
#237 = CARTESIAN_POINT ( 'NONE',  ( 0.0000000000000000000, 0.0000000000000000000, 0.4000000000000000200 ) ) ;
#238 = COORDINATED_UNIVERSAL_TIME_OFFSET ( 6, 0, .BEHIND. ) ;
#239 = CALENDAR_DATE ( 2021, 8, 9 ) ;
#240 = PERSON_AND_ORGANIZATION ( #110, #25 ) ;
#241 = ORIENTED_EDGE ( 'NONE', *, *, #233, .F. ) ;
#242 = CC_DESIGN_PERSON_AND_ORGANIZATION_ASSIGNMENT ( #129, #232, ( #124 ) ) ;
#243 = ADVANCED_BREP_SHAPE_REPRESENTATION ( '93475A195_18-8 Stainless Steel Washer', ( #123, #247 ), #9 ) ;
#244 = ADVANCED_FACE ( 'NONE', ( #66 ), #161, .T. ) ;
#245 = ORIENTED_EDGE ( 'NONE', *, *, #85, .T. ) ;
#246 = DIRECTION ( 'NONE',  ( 0.0000000000000000000, 0.0000000000000000000, 1.000000000000000000 ) ) ;
#247 = AXIS2_PLACEMENT_3D ( 'NONE', #116, #138, #213 ) ;
#248 = APPROVAL_DATE_TIME ( #177, #103 ) ;
#249 = ORIENTED_EDGE ( 'NONE', *, *, #67, .F. ) ;
ENDSEC;
END-ISO-10303-21;
