ISO-10303-21;
HEADER;
FILE_DESCRIPTION (( 'STEP AP203' ),
    '1' );
FILE_NAME ('95610A310_Nylon Plastic Washer.STEP',
    '2023-09-07T15:29:12',
    ( 'Administrator' ),
    ( 'Managed by Terraform' ),
    'SwSTEP 2.0',
    'SolidWorks 2017',
    '' );
FILE_SCHEMA (( 'CONFIG_CONTROL_DESIGN' ));
ENDSEC;

DATA;
#1 = PERSON_AND_ORGANIZATION_ROLE ( 'creator' ) ;
#2 = CC_DESIGN_DATE_AND_TIME_ASSIGNMENT ( #116, #134, ( #112 ) ) ;
#3 = CIRCLE ( 'NONE', #123, 2.499999999999999600 ) ;
#4 = DIRECTION ( 'NONE',  ( 1.000000000000000000, 0.0000000000000000000, 0.0000000000000000000 ) ) ;
#5 = CC_DESIGN_DATE_AND_TIME_ASSIGNMENT ( #68, #117, ( #204 ) ) ;
#6 = VERTEX_POINT ( 'NONE', #104 ) ;
#7 = LOCAL_TIME ( 10, 29, 12.00000000000000000, #121 ) ;
#8 = PLANE ( 'NONE',  #119 ) ;
#9 = AXIS2_PLACEMENT_3D ( 'NONE', #167, #226, #175 ) ;
#10 = FACE_OUTER_BOUND ( 'NONE', #151, .T. ) ;
#11 = CARTESIAN_POINT ( 'NONE',  ( 0.0000000000000000000, 0.0000000000000000000, 0.4000000000000000200 ) ) ;
#12 = ORIENTED_EDGE ( 'NONE', *, *, #94, .F. ) ;
#13 = DIRECTION ( 'NONE',  ( 1.000000000000000000, 0.0000000000000000000, 0.0000000000000000000 ) ) ;
#14 = PERSON_AND_ORGANIZATION ( #214, #54 ) ;
#15 = APPROVAL_STATUS ( 'not_yet_approved' ) ;
#16 = EDGE_LOOP ( 'NONE', ( #234, #37 ) ) ;
#17 = CALENDAR_DATE ( 2023, 7, 9 ) ;
#18 = MECHANICAL_CONTEXT ( 'NONE', #209, 'mechanical' ) ;
#19 = CC_DESIGN_PERSON_AND_ORGANIZATION_ASSIGNMENT ( #166, #212, ( #21 ) ) ;
#20 = CARTESIAN_POINT ( 'NONE',  ( 0.0000000000000000000, 0.0000000000000000000, 0.0000000000000000000 ) ) ;
#21 = PRODUCT_DEFINITION_FORMATION_WITH_SPECIFIED_SOURCE ( 'ANY', '', #193, .NOT_KNOWN. ) ;
#22 = DIRECTION ( 'NONE',  ( 0.0000000000000000000, 0.0000000000000000000, 1.000000000000000000 ) ) ;
#23 = LINE ( 'NONE', #202, #115 ) ;
#24 = CALENDAR_DATE ( 2023, 7, 9 ) ;
#25 = CARTESIAN_POINT ( 'NONE',  ( 0.0000000000000000000, 0.0000000000000000000, 0.4000000000000000200 ) ) ;
#26 = DIRECTION ( 'NONE',  ( -1.000000000000000000, 0.0000000000000000000, 0.0000000000000000000 ) ) ;
#27 = CARTESIAN_POINT ( 'NONE',  ( -2.499999999999999600, 0.0000000000000000000, -0.4000000000000000200 ) ) ;
#28 =( LENGTH_UNIT ( ) NAMED_UNIT ( * ) SI_UNIT ( .MILLI., .METRE. ) );
#29 = CIRCLE ( 'NONE', #194, 2.499999999999999600 ) ;
#30 = ORIENTED_EDGE ( 'NONE', *, *, #176, .F. ) ;
#31 = DIRECTION ( 'NONE',  ( -1.000000000000000000, 0.0000000000000000000, 0.0000000000000000000 ) ) ;
#32 = CC_DESIGN_PERSON_AND_ORGANIZATION_ASSIGNMENT ( #157, #74, ( #21 ) ) ;
#33 = FACE_OUTER_BOUND ( 'NONE', #144, .T. ) ;
#34 = CYLINDRICAL_SURFACE ( 'NONE', #41, 2.499999999999999600 ) ;
#35 = ORIENTED_EDGE ( 'NONE', *, *, #218, .F. ) ;
#36 = APPROVAL_PERSON_ORGANIZATION ( #171, #189, #169 ) ;
#37 = ORIENTED_EDGE ( 'NONE', *, *, #89, .T. ) ;
#38 = EDGE_LOOP ( 'NONE', ( #12, #82, #184, #216 ) ) ;
#39 = CARTESIAN_POINT ( 'NONE',  ( -1.100000000000000300, 0.0000000000000000000, -0.4000000000000000200 ) ) ;
#40 = DIRECTION ( 'NONE',  ( -1.000000000000000000, 0.0000000000000000000, 0.0000000000000000000 ) ) ;
#41 = AXIS2_PLACEMENT_3D ( 'NONE', #196, #122, #26 ) ;
#42 = DIRECTION ( 'NONE',  ( -0.0000000000000000000, -0.0000000000000000000, -1.000000000000000000 ) ) ;
#43 = VECTOR ( 'NONE', #105, 1000.000000000000000 ) ;
#44 = DATE_AND_TIME ( #96, #145 ) ;
#45 = CARTESIAN_POINT ( 'NONE',  ( 0.0000000000000000000, 0.0000000000000000000, 0.4000000000000000200 ) ) ;
#46 = EDGE_CURVE ( 'NONE', #127, #141, #208, .T. ) ;
#47 = ORIENTED_EDGE ( 'NONE', *, *, #89, .F. ) ;
#48 = AXIS2_PLACEMENT_3D ( 'NONE', #63, #159, #155 ) ;
#49 = DIRECTION ( 'NONE',  ( -0.0000000000000000000, -0.0000000000000000000, -1.000000000000000000 ) ) ;
#50 = CIRCLE ( 'NONE', #106, 2.499999999999999600 ) ;
#51 = COORDINATED_UNIVERSAL_TIME_OFFSET ( 6, 0, .BEHIND. ) ;
#52 = ADVANCED_FACE ( 'NONE', ( #86 ), #242, .T. ) ;
#53 = ORIENTED_EDGE ( 'NONE', *, *, #46, .T. ) ;
#54 = ORGANIZATION ( 'UNSPECIFIED', 'UNSPECIFIED', '' ) ;
#55 = LOCAL_TIME ( 10, 29, 12.00000000000000000, #139 ) ;
#56 = AXIS2_PLACEMENT_3D ( 'NONE', #45, #224, #177 ) ;
#57 = ORIENTED_EDGE ( 'NONE', *, *, #148, .T. ) ;
#58 = EDGE_CURVE ( 'NONE', #71, #95, #50, .T. ) ;
#59 = CARTESIAN_POINT ( 'NONE',  ( 0.0000000000000000000, 0.0000000000000000000, -0.4000000000000000200 ) ) ;
#60 = DIRECTION ( 'NONE',  ( 1.000000000000000000, 0.0000000000000000000, 0.0000000000000000000 ) ) ;
#61 = FACE_OUTER_BOUND ( 'NONE', #190, .T. ) ;
#62 = APPROVAL_DATE_TIME ( #102, #189 ) ;
#63 = CARTESIAN_POINT ( 'NONE',  ( 0.0000000000000000000, 0.0000000000000000000, 0.4000000000000000200 ) ) ;
#64 = DIRECTION ( 'NONE',  ( 1.000000000000000000, 0.0000000000000000000, 0.0000000000000000000 ) ) ;
#65 = AXIS2_PLACEMENT_3D ( 'NONE', #215, #42, #40 ) ;
#66 =( NAMED_UNIT ( * ) PLANE_ANGLE_UNIT ( ) SI_UNIT ( $, .RADIAN. ) );
#67 = VERTEX_POINT ( 'NONE', #39 ) ;
#68 = DATE_AND_TIME ( #17, #7 ) ;
#69 = EDGE_CURVE ( 'NONE', #67, #229, #248, .T. ) ;
#70 = APPLICATION_PROTOCOL_DEFINITION ( 'international standard', 'config_control_design', 1994, #188 ) ;
#71 = VERTEX_POINT ( 'NONE', #100 ) ;
#72 = APPROVAL_DATE_TIME ( #183, #222 ) ;
#73 = APPROVAL_STATUS ( 'not_yet_approved' ) ;
#74 = PERSON_AND_ORGANIZATION_ROLE ( 'design_supplier' ) ;
#75 = DESIGN_CONTEXT ( 'detailed design', #188, 'design' ) ;
#76 = DIRECTION ( 'NONE',  ( 0.0000000000000000000, 0.0000000000000000000, 1.000000000000000000 ) ) ;
#77 = VECTOR ( 'NONE', #158, 1000.000000000000000 ) ;
#78 = ORIENTED_EDGE ( 'NONE', *, *, #58, .F. ) ;
#79 = CARTESIAN_POINT ( 'NONE',  ( -1.100000000000000300, 0.0000000000000000000, 0.4000000000000000200 ) ) ;
#80 = LINE ( 'NONE', #174, #77 ) ;
#81 = CARTESIAN_POINT ( 'NONE',  ( 0.0000000000000000000, 0.0000000000000000000, -0.4000000000000000200 ) ) ;
#82 = ORIENTED_EDGE ( 'NONE', *, *, #168, .F. ) ;
#83 = EDGE_CURVE ( 'NONE', #141, #67, #156, .T. ) ;
#84 = ADVANCED_FACE ( 'NONE', ( #10, #120 ), #8, .F. ) ;
#85 = PLANE ( 'NONE',  #9 ) ;
#86 = FACE_OUTER_BOUND ( 'NONE', #246, .T. ) ;
#87 = CALENDAR_DATE ( 2023, 7, 9 ) ;
#88 = ADVANCED_FACE ( 'NONE', ( #108 ), #34, .T. ) ;
#89 = EDGE_CURVE ( 'NONE', #229, #67, #154, .T. ) ;
#90 = ORIENTED_EDGE ( 'NONE', *, *, #83, .T. ) ;
#91 = DIRECTION ( 'NONE',  ( 1.000000000000000000, 0.0000000000000000000, 0.0000000000000000000 ) ) ;
#92 = MANIFOLD_SOLID_BREP ( 'Boss-Extrude1', #198 ) ;
#93 =( NAMED_UNIT ( * ) SI_UNIT ( $, .STERADIAN. ) SOLID_ANGLE_UNIT ( ) );
#94 = EDGE_CURVE ( 'NONE', #185, #71, #131, .T. ) ;
#95 = VERTEX_POINT ( 'NONE', #27 ) ;
#96 = CALENDAR_DATE ( 2023, 7, 9 ) ;
#97 = ORIENTED_EDGE ( 'NONE', *, *, #69, .F. ) ;
#98 = DIRECTION ( 'NONE',  ( 1.000000000000000000, 0.0000000000000000000, 0.0000000000000000000 ) ) ;
#99 = AXIS2_PLACEMENT_3D ( 'NONE', #223, #160, #31 ) ;
#100 = CARTESIAN_POINT ( 'NONE',  ( 2.499999999999999600, 3.061616997868382600E-016, -0.4000000000000000200 ) ) ;
#101 = ORIENTED_EDGE ( 'NONE', *, *, #129, .F. ) ;
#102 = DATE_AND_TIME ( #217, #55 ) ;
#103 = CC_DESIGN_SECURITY_CLASSIFICATION ( #112, ( #21 ) ) ;
#104 = CARTESIAN_POINT ( 'NONE',  ( -2.499999999999999600, 0.0000000000000000000, 0.4000000000000000200 ) ) ;
#105 = DIRECTION ( 'NONE',  ( -0.0000000000000000000, -0.0000000000000000000, -1.000000000000000000 ) ) ;
#106 = AXIS2_PLACEMENT_3D ( 'NONE', #81, #219, #64 ) ;
#107 = CARTESIAN_POINT ( 'NONE',  ( 2.499999999999999600, 3.061616997868382600E-016, 0.4000000000000000200 ) ) ;
#108 = FACE_OUTER_BOUND ( 'NONE', #38, .T. ) ;
#109 = CARTESIAN_POINT ( 'NONE',  ( 0.0000000000000000000, 0.0000000000000000000, 0.4000000000000000200 ) ) ;
#110 = DIRECTION ( 'NONE',  ( 1.000000000000000000, 0.0000000000000000000, 0.0000000000000000000 ) ) ;
#111 = APPROVAL_PERSON_ORGANIZATION ( #249, #113, #186 ) ;
#112 = SECURITY_CLASSIFICATION ( '', '', #118 ) ;
#113 = APPROVAL ( #152, 'UNSPECIFIED' ) ;
#114 = ADVANCED_FACE ( 'NONE', ( #165 ), #126, .F. ) ;
#115 = VECTOR ( 'NONE', #49, 1000.000000000000000 ) ;
#116 = DATE_AND_TIME ( #87, #243 ) ;
#117 = DATE_TIME_ROLE ( 'creation_date' ) ;
#118 = SECURITY_CLASSIFICATION_LEVEL ( 'unclassified' ) ;
#119 = AXIS2_PLACEMENT_3D ( 'NONE', #59, #76, #137 ) ;
#120 = FACE_BOUND ( 'NONE', #16, .T. ) ;
#121 = COORDINATED_UNIVERSAL_TIME_OFFSET ( 6, 0, .BEHIND. ) ;
#122 = DIRECTION ( 'NONE',  ( -0.0000000000000000000, -0.0000000000000000000, -1.000000000000000000 ) ) ;
#123 = AXIS2_PLACEMENT_3D ( 'NONE', #11, #142, #110 ) ;
#124 = CARTESIAN_POINT ( 'NONE',  ( 1.100000000000000300, 1.347111479062088700E-016, 0.4000000000000000200 ) ) ;
#125 = CARTESIAN_POINT ( 'NONE',  ( 0.0000000000000000000, 0.0000000000000000000, -0.4000000000000000200 ) ) ;
#126 = CYLINDRICAL_SURFACE ( 'NONE', #65, 1.100000000000000300 ) ;
#127 = VERTEX_POINT ( 'NONE', #124 ) ;
#128 = SHAPE_DEFINITION_REPRESENTATION ( #162, #143 ) ;
#129 = EDGE_CURVE ( 'NONE', #6, #95, #80, .T. ) ;
#130 = DIRECTION ( 'NONE',  ( 1.000000000000000000, 0.0000000000000000000, 0.0000000000000000000 ) ) ;
#131 = LINE ( 'NONE', #221, #173 ) ;
#132 = ORIENTED_EDGE ( 'NONE', *, *, #148, .F. ) ;
#133 = PERSON_AND_ORGANIZATION ( #214, #54 ) ;
#134 = DATE_TIME_ROLE ( 'classification_date' ) ;
#135 = ORIENTED_EDGE ( 'NONE', *, *, #58, .T. ) ;
#136 =( GEOMETRIC_REPRESENTATION_CONTEXT ( 3 ) GLOBAL_UNCERTAINTY_ASSIGNED_CONTEXT ( ( #187 ) ) GLOBAL_UNIT_ASSIGNED_CONTEXT ( ( #28, #66, #93 ) ) REPRESENTATION_CONTEXT ( 'NONE', 'WORKASPACE' ) );
#137 = DIRECTION ( 'NONE',  ( 1.000000000000000000, 0.0000000000000000000, -0.0000000000000000000 ) ) ;
#138 = ORIENTED_EDGE ( 'NONE', *, *, #200, .F. ) ;
#139 = COORDINATED_UNIVERSAL_TIME_OFFSET ( 6, 0, .BEHIND. ) ;
#140 = CC_DESIGN_PERSON_AND_ORGANIZATION_ASSIGNMENT ( #14, #1, ( #204 ) ) ;
#141 = VERTEX_POINT ( 'NONE', #239 ) ;
#142 = DIRECTION ( 'NONE',  ( 0.0000000000000000000, 0.0000000000000000000, 1.000000000000000000 ) ) ;
#143 = ADVANCED_BREP_SHAPE_REPRESENTATION ( '95610A310_Nylon Plastic Washer', ( #92, #207 ), #136 ) ;
#144 = EDGE_LOOP ( 'NONE', ( #170, #57 ) ) ;
#145 = LOCAL_TIME ( 10, 29, 12.00000000000000000, #199 ) ;
#146 = CIRCLE ( 'NONE', #233, 1.100000000000000300 ) ;
#147 = PRODUCT_RELATED_PRODUCT_CATEGORY ( 'detail', '', ( #193 ) ) ;
#148 = EDGE_CURVE ( 'NONE', #185, #6, #3, .T. ) ;
#149 = ORIENTED_EDGE ( 'NONE', *, *, #176, .T. ) ;
#150 = COORDINATED_UNIVERSAL_TIME_OFFSET ( 6, 0, .BEHIND. ) ;
#151 = EDGE_LOOP ( 'NONE', ( #35, #78 ) ) ;
#152 = APPROVAL_STATUS ( 'not_yet_approved' ) ;
#153 = APPROVAL_ROLE ( '' ) ;
#154 = CIRCLE ( 'NONE', #238, 1.100000000000000300 ) ;
#155 = DIRECTION ( 'NONE',  ( -1.000000000000000000, 0.0000000000000000000, 0.0000000000000000000 ) ) ;
#156 = LINE ( 'NONE', #79, #43 ) ;
#157 = PERSON_AND_ORGANIZATION ( #214, #54 ) ;
#158 = DIRECTION ( 'NONE',  ( -0.0000000000000000000, -0.0000000000000000000, -1.000000000000000000 ) ) ;
#159 = DIRECTION ( 'NONE',  ( -0.0000000000000000000, -0.0000000000000000000, -1.000000000000000000 ) ) ;
#160 = DIRECTION ( 'NONE',  ( -0.0000000000000000000, -0.0000000000000000000, -1.000000000000000000 ) ) ;
#161 = DIRECTION ( 'NONE',  ( 0.0000000000000000000, 0.0000000000000000000, 1.000000000000000000 ) ) ;
#162 = PRODUCT_DEFINITION_SHAPE ( 'NONE', 'NONE',  #204 ) ;
#163 = CARTESIAN_POINT ( 'NONE',  ( 1.100000000000000300, 1.347111479062088700E-016, -0.4000000000000000200 ) ) ;
#164 = CC_DESIGN_PERSON_AND_ORGANIZATION_ASSIGNMENT ( #211, #192, ( #193 ) ) ;
#165 = FACE_OUTER_BOUND ( 'NONE', #210, .T. ) ;
#166 = PERSON_AND_ORGANIZATION ( #214, #54 ) ;
#167 = CARTESIAN_POINT ( 'NONE',  ( 0.0000000000000000000, 0.0000000000000000000, 0.4000000000000000200 ) ) ;
#168 = EDGE_CURVE ( 'NONE', #6, #185, #182, .T. ) ;
#169 = APPROVAL_ROLE ( '' ) ;
#170 = ORIENTED_EDGE ( 'NONE', *, *, #168, .T. ) ;
#171 = PERSON_AND_ORGANIZATION ( #214, #54 ) ;
#172 = ORIENTED_EDGE ( 'NONE', *, *, #200, .T. ) ;
#173 = VECTOR ( 'NONE', #197, 1000.000000000000000 ) ;
#174 = CARTESIAN_POINT ( 'NONE',  ( -2.499999999999999600, 0.0000000000000000000, 0.4000000000000000200 ) ) ;
#175 = DIRECTION ( 'NONE',  ( 1.000000000000000000, 0.0000000000000000000, -0.0000000000000000000 ) ) ;
#176 = EDGE_CURVE ( 'NONE', #127, #229, #23, .T. ) ;
#177 = DIRECTION ( 'NONE',  ( 1.000000000000000000, 0.0000000000000000000, 0.0000000000000000000 ) ) ;
#178 = ORIENTED_EDGE ( 'NONE', *, *, #83, .F. ) ;
#179 = CARTESIAN_POINT ( 'NONE',  ( 0.0000000000000000000, 0.0000000000000000000, -0.4000000000000000200 ) ) ;
#180 = ADVANCED_FACE ( 'NONE', ( #61 ), #203, .F. ) ;
#181 = CC_DESIGN_PERSON_AND_ORGANIZATION_ASSIGNMENT ( #133, #228, ( #112 ) ) ;
#182 = CIRCLE ( 'NONE', #56, 2.499999999999999600 ) ;
#183 = DATE_AND_TIME ( #24, #225 ) ;
#184 = ORIENTED_EDGE ( 'NONE', *, *, #129, .T. ) ;
#185 = VERTEX_POINT ( 'NONE', #107 ) ;
#186 = APPROVAL_ROLE ( '' ) ;
#187 = UNCERTAINTY_MEASURE_WITH_UNIT (LENGTH_MEASURE( 1.000000000000000100E-005 ), #28, 'distance_accuracy_value', 'NONE');
#188 = APPLICATION_CONTEXT ( 'configuration controlled 3d designs of mechanical parts and assemblies' ) ;
#189 = APPROVAL ( #15, 'UNSPECIFIED' ) ;
#190 = EDGE_LOOP ( 'NONE', ( #30, #53, #90, #47 ) ) ;
#191 = APPROVAL_PERSON_ORGANIZATION ( #206, #222, #153 ) ;
#192 = PERSON_AND_ORGANIZATION_ROLE ( 'design_owner' ) ;
#193 = PRODUCT ( '95610A310_Nylon Plastic Washer', '95610A310_Nylon Plastic Washer', '', ( #18 ) ) ;
#194 = AXIS2_PLACEMENT_3D ( 'NONE', #179, #161, #130 ) ;
#195 = ORIENTED_EDGE ( 'NONE', *, *, #94, .T. ) ;
#196 = CARTESIAN_POINT ( 'NONE',  ( 0.0000000000000000000, 0.0000000000000000000, 0.4000000000000000200 ) ) ;
#197 = DIRECTION ( 'NONE',  ( -0.0000000000000000000, -0.0000000000000000000, -1.000000000000000000 ) ) ;
#198 = CLOSED_SHELL ( 'NONE', ( #114, #52, #244, #84, #88, #180 ) ) ;
#199 = COORDINATED_UNIVERSAL_TIME_OFFSET ( 6, 0, .BEHIND. ) ;
#200 = EDGE_CURVE ( 'NONE', #141, #127, #146, .T. ) ;
#201 = DIRECTION ( 'NONE',  ( 0.0000000000000000000, 0.0000000000000000000, 1.000000000000000000 ) ) ;
#202 = CARTESIAN_POINT ( 'NONE',  ( 1.100000000000000300, 1.347111479062088700E-016, 0.4000000000000000200 ) ) ;
#203 = CYLINDRICAL_SURFACE ( 'NONE', #99, 1.100000000000000300 ) ;
#204 = PRODUCT_DEFINITION ( 'UNKNOWN', '', #21, #75 ) ;
#205 = ORIENTED_EDGE ( 'NONE', *, *, #46, .F. ) ;
#206 = PERSON_AND_ORGANIZATION ( #214, #54 ) ;
#207 = AXIS2_PLACEMENT_3D ( 'NONE', #20, #247, #91 ) ;
#208 = CIRCLE ( 'NONE', #213, 1.100000000000000300 ) ;
#209 = APPLICATION_CONTEXT ( 'configuration controlled 3d designs of mechanical parts and assemblies' ) ;
#210 = EDGE_LOOP ( 'NONE', ( #172, #149, #97, #178 ) ) ;
#211 = PERSON_AND_ORGANIZATION ( #214, #54 ) ;
#212 = PERSON_AND_ORGANIZATION_ROLE ( 'creator' ) ;
#213 = AXIS2_PLACEMENT_3D ( 'NONE', #25, #201, #60 ) ;
#214 = PERSON ( 'UNSPECIFIED', 'UNSPECIFIED', 'UNSPECIFIED', ('UNSPECIFIED'), ('UNSPECIFIED'), ('UNSPECIFIED') ) ;
#215 = CARTESIAN_POINT ( 'NONE',  ( 0.0000000000000000000, 0.0000000000000000000, 0.4000000000000000200 ) ) ;
#216 = ORIENTED_EDGE ( 'NONE', *, *, #218, .T. ) ;
#217 = CALENDAR_DATE ( 2023, 7, 9 ) ;
#218 = EDGE_CURVE ( 'NONE', #95, #71, #29, .T. ) ;
#219 = DIRECTION ( 'NONE',  ( 0.0000000000000000000, 0.0000000000000000000, 1.000000000000000000 ) ) ;
#220 = DIRECTION ( 'NONE',  ( 0.0000000000000000000, 0.0000000000000000000, 1.000000000000000000 ) ) ;
#221 = CARTESIAN_POINT ( 'NONE',  ( 2.499999999999999600, 3.061616997868382600E-016, 0.4000000000000000200 ) ) ;
#222 = APPROVAL ( #73, 'UNSPECIFIED' ) ;
#223 = CARTESIAN_POINT ( 'NONE',  ( 0.0000000000000000000, 0.0000000000000000000, 0.4000000000000000200 ) ) ;
#224 = DIRECTION ( 'NONE',  ( 0.0000000000000000000, 0.0000000000000000000, 1.000000000000000000 ) ) ;
#225 = LOCAL_TIME ( 10, 29, 12.00000000000000000, #150 ) ;
#226 = DIRECTION ( 'NONE',  ( 0.0000000000000000000, 0.0000000000000000000, 1.000000000000000000 ) ) ;
#227 = AXIS2_PLACEMENT_3D ( 'NONE', #235, #22, #4 ) ;
#228 = PERSON_AND_ORGANIZATION_ROLE ( 'classification_officer' ) ;
#229 = VERTEX_POINT ( 'NONE', #163 ) ;
#230 = CC_DESIGN_APPROVAL ( #189, ( #21 ) ) ;
#231 = APPLICATION_PROTOCOL_DEFINITION ( 'international standard', 'config_control_design', 1994, #209 ) ;
#232 = CC_DESIGN_APPROVAL ( #113, ( #112 ) ) ;
#233 = AXIS2_PLACEMENT_3D ( 'NONE', #109, #240, #13 ) ;
#234 = ORIENTED_EDGE ( 'NONE', *, *, #69, .T. ) ;
#235 = CARTESIAN_POINT ( 'NONE',  ( 0.0000000000000000000, 0.0000000000000000000, -0.4000000000000000200 ) ) ;
#236 = FACE_BOUND ( 'NONE', #241, .T. ) ;
#237 = APPROVAL_DATE_TIME ( #44, #113 ) ;
#238 = AXIS2_PLACEMENT_3D ( 'NONE', #125, #220, #98 ) ;
#239 = CARTESIAN_POINT ( 'NONE',  ( -1.100000000000000300, 0.0000000000000000000, 0.4000000000000000200 ) ) ;
#240 = DIRECTION ( 'NONE',  ( 0.0000000000000000000, 0.0000000000000000000, 1.000000000000000000 ) ) ;
#241 = EDGE_LOOP ( 'NONE', ( #138, #205 ) ) ;
#242 = CYLINDRICAL_SURFACE ( 'NONE', #48, 2.499999999999999600 ) ;
#243 = LOCAL_TIME ( 10, 29, 12.00000000000000000, #51 ) ;
#244 = ADVANCED_FACE ( 'NONE', ( #33, #236 ), #85, .T. ) ;
#245 = CC_DESIGN_APPROVAL ( #222, ( #204 ) ) ;
#246 = EDGE_LOOP ( 'NONE', ( #132, #195, #135, #101 ) ) ;
#247 = DIRECTION ( 'NONE',  ( 0.0000000000000000000, 0.0000000000000000000, 1.000000000000000000 ) ) ;
#248 = CIRCLE ( 'NONE', #227, 1.100000000000000300 ) ;
#249 = PERSON_AND_ORGANIZATION ( #214, #54 ) ;
ENDSEC;
END-ISO-10303-21;
