ISO-10303-21;
HEADER;
FILE_DESCRIPTION (( 'STEP AP203' ),
    '1' );
FILE_NAME ('95610A113_Nylon Plastic Washer.STEP',
    '2023-09-08T15:27:10',
    ( 'Administrator' ),
    ( 'Managed by Terraform' ),
    'SwSTEP 2.0',
    'SolidWorks 2017',
    '' );
FILE_SCHEMA (( 'CONFIG_CONTROL_DESIGN' ));
ENDSEC;

DATA;
#1 = PERSON_AND_ORGANIZATION ( #182, #134 ) ;
#2 = CALENDAR_DATE ( 2023, 8, 9 ) ;
#3 = EDGE_CURVE ( 'NONE', #80, #68, #148, .T. ) ;
#4 = PLANE ( 'NONE',  #73 ) ;
#5 = ORIENTED_EDGE ( 'NONE', *, *, #245, .T. ) ;
#6 = ORIENTED_EDGE ( 'NONE', *, *, #212, .F. ) ;
#7 = DIRECTION ( 'NONE',  ( 0.0000000000000000000, 0.0000000000000000000, 1.000000000000000000 ) ) ;
#8 = DIRECTION ( 'NONE',  ( 1.000000000000000000, 0.0000000000000000000, -0.0000000000000000000 ) ) ;
#9 = ORIENTED_EDGE ( 'NONE', *, *, #49, .T. ) ;
#10 = CARTESIAN_POINT ( 'NONE',  ( 0.0000000000000000000, 0.0000000000000000000, 0.5000000000000000000 ) ) ;
#11 = CYLINDRICAL_SURFACE ( 'NONE', #37, 1.100000000000000300 ) ;
#12 = CARTESIAN_POINT ( 'NONE',  ( 1.100000000000000300, 1.347111479062088700E-016, 0.5000000000000000000 ) ) ;
#13 = PERSON_AND_ORGANIZATION_ROLE ( 'creator' ) ;
#14 = APPROVAL_ROLE ( '' ) ;
#15 = AXIS2_PLACEMENT_3D ( 'NONE', #46, #117, #237 ) ;
#16 = UNCERTAINTY_MEASURE_WITH_UNIT (LENGTH_MEASURE( 1.000000000000000100E-005 ), #51, 'distance_accuracy_value', 'NONE');
#17 = ADVANCED_FACE ( 'NONE', ( #211, #77 ), #173, .F. ) ;
#18 = FACE_OUTER_BOUND ( 'NONE', #235, .T. ) ;
#19 = SECURITY_CLASSIFICATION ( '', '', #144 ) ;
#20 = CC_DESIGN_PERSON_AND_ORGANIZATION_ASSIGNMENT ( #128, #225, ( #187 ) ) ;
#21 = APPROVAL_PERSON_ORGANIZATION ( #1, #200, #55 ) ;
#22 = COORDINATED_UNIVERSAL_TIME_OFFSET ( 6, 0, .BEHIND. ) ;
#23 = CARTESIAN_POINT ( 'NONE',  ( 0.0000000000000000000, 0.0000000000000000000, 0.5000000000000000000 ) ) ;
#24 = EDGE_LOOP ( 'NONE', ( #31, #180 ) ) ;
#25 = CARTESIAN_POINT ( 'NONE',  ( -3.499999999999999600, 0.0000000000000000000, 0.5000000000000000000 ) ) ;
#26 = APPROVAL_DATE_TIME ( #188, #45 ) ;
#27 = CYLINDRICAL_SURFACE ( 'NONE', #230, 3.499999999999999600 ) ;
#28 = CARTESIAN_POINT ( 'NONE',  ( 3.499999999999999600, 4.286263797015736100E-016, 0.5000000000000000000 ) ) ;
#29 = AXIS2_PLACEMENT_3D ( 'NONE', #201, #181, #105 ) ;
#30 = DIRECTION ( 'NONE',  ( 0.0000000000000000000, 0.0000000000000000000, 1.000000000000000000 ) ) ;
#31 = ORIENTED_EDGE ( 'NONE', *, *, #49, .F. ) ;
#32 = EDGE_LOOP ( 'NONE', ( #120, #6 ) ) ;
#33 = APPLICATION_CONTEXT ( 'configuration controlled 3d designs of mechanical parts and assemblies' ) ;
#34 = DIRECTION ( 'NONE',  ( 1.000000000000000000, 0.0000000000000000000, 0.0000000000000000000 ) ) ;
#35 = EDGE_CURVE ( 'NONE', #38, #186, #202, .T. ) ;
#36 = DATE_AND_TIME ( #238, #178 ) ;
#37 = AXIS2_PLACEMENT_3D ( 'NONE', #193, #142, #66 ) ;
#38 = VERTEX_POINT ( 'NONE', #43 ) ;
#39 = PRODUCT_DEFINITION ( 'UNKNOWN', '', #187, #210 ) ;
#40 = ADVANCED_BREP_SHAPE_REPRESENTATION ( '95610A113_Nylon Plastic Washer', ( #72, #221 ), #151 ) ;
#41 = LOCAL_TIME ( 10, 27, 10.00000000000000000, #22 ) ;
#42 = CARTESIAN_POINT ( 'NONE',  ( 0.0000000000000000000, 0.0000000000000000000, 0.5000000000000000000 ) ) ;
#43 = CARTESIAN_POINT ( 'NONE',  ( -1.100000000000000300, 0.0000000000000000000, -0.5000000000000000000 ) ) ;
#44 = DIRECTION ( 'NONE',  ( -0.0000000000000000000, -0.0000000000000000000, -1.000000000000000000 ) ) ;
#45 = APPROVAL ( #74, 'UNSPECIFIED' ) ;
#46 = CARTESIAN_POINT ( 'NONE',  ( 0.0000000000000000000, 0.0000000000000000000, 0.5000000000000000000 ) ) ;
#47 = PERSON_AND_ORGANIZATION ( #182, #134 ) ;
#48 = PERSON_AND_ORGANIZATION ( #182, #134 ) ;
#49 = EDGE_CURVE ( 'NONE', #96, #185, #226, .T. ) ;
#50 = AXIS2_PLACEMENT_3D ( 'NONE', #79, #100, #234 ) ;
#51 =( LENGTH_UNIT ( ) NAMED_UNIT ( * ) SI_UNIT ( .MILLI., .METRE. ) );
#52 = CARTESIAN_POINT ( 'NONE',  ( 0.0000000000000000000, 0.0000000000000000000, 0.5000000000000000000 ) ) ;
#53 = ORIENTED_EDGE ( 'NONE', *, *, #176, .T. ) ;
#54 = EDGE_LOOP ( 'NONE', ( #162, #53, #216, #122 ) ) ;
#55 = APPROVAL_ROLE ( '' ) ;
#56 = COORDINATED_UNIVERSAL_TIME_OFFSET ( 6, 0, .BEHIND. ) ;
#57 = APPROVAL_PERSON_ORGANIZATION ( #86, #88, #14 ) ;
#58 = ORIENTED_EDGE ( 'NONE', *, *, #205, .T. ) ;
#59 = PRODUCT_RELATED_PRODUCT_CATEGORY ( 'detail', '', ( #124 ) ) ;
#60 = DIRECTION ( 'NONE',  ( 0.0000000000000000000, 0.0000000000000000000, 1.000000000000000000 ) ) ;
#61 = VERTEX_POINT ( 'NONE', #28 ) ;
#62 = DIRECTION ( 'NONE',  ( 1.000000000000000000, 0.0000000000000000000, -0.0000000000000000000 ) ) ;
#63 = CC_DESIGN_APPROVAL ( #88, ( #39 ) ) ;
#64 = DIRECTION ( 'NONE',  ( -0.0000000000000000000, -0.0000000000000000000, -1.000000000000000000 ) ) ;
#65 = CARTESIAN_POINT ( 'NONE',  ( 0.0000000000000000000, 0.0000000000000000000, -0.5000000000000000000 ) ) ;
#66 = DIRECTION ( 'NONE',  ( -1.000000000000000000, 0.0000000000000000000, 0.0000000000000000000 ) ) ;
#67 = CYLINDRICAL_SURFACE ( 'NONE', #249, 3.499999999999999600 ) ;
#68 = VERTEX_POINT ( 'NONE', #174 ) ;
#69 = CARTESIAN_POINT ( 'NONE',  ( 3.499999999999999600, 4.286263797015736100E-016, -0.5000000000000000000 ) ) ;
#70 = APPROVAL_STATUS ( 'not_yet_approved' ) ;
#71 = APPROVAL_STATUS ( 'not_yet_approved' ) ;
#72 = MANIFOLD_SOLID_BREP ( 'Boss-Extrude1', #136 ) ;
#73 = AXIS2_PLACEMENT_3D ( 'NONE', #42, #137, #62 ) ;
#74 = APPROVAL_STATUS ( 'not_yet_approved' ) ;
#75 = LOCAL_TIME ( 10, 27, 10.00000000000000000, #92 ) ;
#76 = LINE ( 'NONE', #25, #167 ) ;
#77 = FACE_BOUND ( 'NONE', #155, .T. ) ;
#78 = CYLINDRICAL_SURFACE ( 'NONE', #29, 1.100000000000000300 ) ;
#79 = CARTESIAN_POINT ( 'NONE',  ( 0.0000000000000000000, 0.0000000000000000000, -0.5000000000000000000 ) ) ;
#80 = VERTEX_POINT ( 'NONE', #114 ) ;
#81 = AXIS2_PLACEMENT_3D ( 'NONE', #154, #104, #242 ) ;
#82 = CARTESIAN_POINT ( 'NONE',  ( 0.0000000000000000000, 0.0000000000000000000, 0.5000000000000000000 ) ) ;
#83 = CARTESIAN_POINT ( 'NONE',  ( 1.100000000000000300, 1.347111479062088700E-016, -0.5000000000000000000 ) ) ;
#84 = DATE_AND_TIME ( #168, #41 ) ;
#85 = APPLICATION_PROTOCOL_DEFINITION ( 'international standard', 'config_control_design', 1994, #33 ) ;
#86 = PERSON_AND_ORGANIZATION ( #182, #134 ) ;
#87 = ORIENTED_EDGE ( 'NONE', *, *, #199, .F. ) ;
#88 = APPROVAL ( #71, 'UNSPECIFIED' ) ;
#89 = DIRECTION ( 'NONE',  ( 1.000000000000000000, 0.0000000000000000000, 0.0000000000000000000 ) ) ;
#90 = CARTESIAN_POINT ( 'NONE',  ( -3.499999999999999600, 0.0000000000000000000, 0.5000000000000000000 ) ) ;
#91 = CC_DESIGN_PERSON_AND_ORGANIZATION_ASSIGNMENT ( #48, #13, ( #39 ) ) ;
#92 = COORDINATED_UNIVERSAL_TIME_OFFSET ( 6, 0, .BEHIND. ) ;
#93 = LINE ( 'NONE', #138, #157 ) ;
#94 = ORIENTED_EDGE ( 'NONE', *, *, #161, .F. ) ;
#95 = ADVANCED_FACE ( 'NONE', ( #18, #213 ), #4, .T. ) ;
#96 = VERTEX_POINT ( 'NONE', #116 ) ;
#97 = CC_DESIGN_DATE_AND_TIME_ASSIGNMENT ( #218, #125, ( #19 ) ) ;
#98 = APPROVAL_DATE_TIME ( #36, #200 ) ;
#99 = SHAPE_DEFINITION_REPRESENTATION ( #247, #40 ) ;
#100 = DIRECTION ( 'NONE',  ( 0.0000000000000000000, 0.0000000000000000000, 1.000000000000000000 ) ) ;
#101 = PERSON_AND_ORGANIZATION ( #182, #134 ) ;
#102 = ORIENTED_EDGE ( 'NONE', *, *, #35, .T. ) ;
#103 = CC_DESIGN_PERSON_AND_ORGANIZATION_ASSIGNMENT ( #47, #166, ( #187 ) ) ;
#104 = DIRECTION ( 'NONE',  ( 0.0000000000000000000, 0.0000000000000000000, 1.000000000000000000 ) ) ;
#105 = DIRECTION ( 'NONE',  ( -1.000000000000000000, 0.0000000000000000000, 0.0000000000000000000 ) ) ;
#106 =( NAMED_UNIT ( * ) PLANE_ANGLE_UNIT ( ) SI_UNIT ( $, .RADIAN. ) );
#107 = ORIENTED_EDGE ( 'NONE', *, *, #170, .F. ) ;
#108 = CC_DESIGN_PERSON_AND_ORGANIZATION_ASSIGNMENT ( #101, #127, ( #124 ) ) ;
#109 = LINE ( 'NONE', #12, #129 ) ;
#110 = EDGE_LOOP ( 'NONE', ( #246, #107, #171, #9 ) ) ;
#111 = LINE ( 'NONE', #159, #192 ) ;
#112 = AXIS2_PLACEMENT_3D ( 'NONE', #82, #223, #158 ) ;
#113 = FACE_OUTER_BOUND ( 'NONE', #206, .T. ) ;
#114 = CARTESIAN_POINT ( 'NONE',  ( -1.100000000000000300, 0.0000000000000000000, 0.5000000000000000000 ) ) ;
#115 = CARTESIAN_POINT ( 'NONE',  ( 0.0000000000000000000, 0.0000000000000000000, -0.5000000000000000000 ) ) ;
#116 = CARTESIAN_POINT ( 'NONE',  ( -3.499999999999999600, 0.0000000000000000000, -0.5000000000000000000 ) ) ;
#117 = DIRECTION ( 'NONE',  ( 0.0000000000000000000, 0.0000000000000000000, 1.000000000000000000 ) ) ;
#118 = DIRECTION ( 'NONE',  ( 0.0000000000000000000, 0.0000000000000000000, 1.000000000000000000 ) ) ;
#119 = PERSON_AND_ORGANIZATION ( #182, #134 ) ;
#120 = ORIENTED_EDGE ( 'NONE', *, *, #3, .F. ) ;
#121 = EDGE_CURVE ( 'NONE', #185, #96, #224, .T. ) ;
#122 = ORIENTED_EDGE ( 'NONE', *, *, #135, .F. ) ;
#123 = DIRECTION ( 'NONE',  ( -0.0000000000000000000, -0.0000000000000000000, -1.000000000000000000 ) ) ;
#124 = PRODUCT ( '95610A113_Nylon Plastic Washer', '95610A113_Nylon Plastic Washer', '', ( #222 ) ) ;
#125 = DATE_TIME_ROLE ( 'classification_date' ) ;
#126 = PERSON_AND_ORGANIZATION_ROLE ( 'classification_officer' ) ;
#127 = PERSON_AND_ORGANIZATION_ROLE ( 'design_owner' ) ;
#128 = PERSON_AND_ORGANIZATION ( #182, #134 ) ;
#129 = VECTOR ( 'NONE', #64, 1000.000000000000000 ) ;
#130 = ORIENTED_EDGE ( 'NONE', *, *, #3, .T. ) ;
#131 = CC_DESIGN_SECURITY_CLASSIFICATION ( #19, ( #187 ) ) ;
#132 = AXIS2_PLACEMENT_3D ( 'NONE', #23, #60, #152 ) ;
#133 = COORDINATED_UNIVERSAL_TIME_OFFSET ( 6, 0, .BEHIND. ) ;
#134 = ORGANIZATION ( 'UNSPECIFIED', 'UNSPECIFIED', '' ) ;
#135 = EDGE_CURVE ( 'NONE', #165, #96, #76, .T. ) ;
#136 = CLOSED_SHELL ( 'NONE', ( #229, #189, #95, #17, #248, #146 ) ) ;
#137 = DIRECTION ( 'NONE',  ( 0.0000000000000000000, 0.0000000000000000000, 1.000000000000000000 ) ) ;
#138 = CARTESIAN_POINT ( 'NONE',  ( -1.100000000000000300, 0.0000000000000000000, 0.5000000000000000000 ) ) ;
#139 = FACE_OUTER_BOUND ( 'NONE', #54, .T. ) ;
#140 = ORIENTED_EDGE ( 'NONE', *, *, #170, .T. ) ;
#141 = DIRECTION ( 'NONE',  ( -1.000000000000000000, 0.0000000000000000000, 0.0000000000000000000 ) ) ;
#142 = DIRECTION ( 'NONE',  ( -0.0000000000000000000, -0.0000000000000000000, -1.000000000000000000 ) ) ;
#143 = APPROVAL_ROLE ( '' ) ;
#144 = SECURITY_CLASSIFICATION_LEVEL ( 'unclassified' ) ;
#145 = DATE_AND_TIME ( #2, #239 ) ;
#146 = ADVANCED_FACE ( 'NONE', ( #113 ), #11, .F. ) ;
#147 = AXIS2_PLACEMENT_3D ( 'NONE', #10, #118, #89 ) ;
#148 = CIRCLE ( 'NONE', #132, 1.100000000000000300 ) ;
#149 = PERSON_AND_ORGANIZATION ( #182, #134 ) ;
#150 = FACE_OUTER_BOUND ( 'NONE', #209, .T. ) ;
#151 =( GEOMETRIC_REPRESENTATION_CONTEXT ( 3 ) GLOBAL_UNCERTAINTY_ASSIGNED_CONTEXT ( ( #16 ) ) GLOBAL_UNIT_ASSIGNED_CONTEXT ( ( #51, #106, #160 ) ) REPRESENTATION_CONTEXT ( 'NONE', 'WORKASPACE' ) );
#152 = DIRECTION ( 'NONE',  ( 1.000000000000000000, 0.0000000000000000000, 0.0000000000000000000 ) ) ;
#153 = FACE_OUTER_BOUND ( 'NONE', #110, .T. ) ;
#154 = CARTESIAN_POINT ( 'NONE',  ( 0.0000000000000000000, 0.0000000000000000000, -0.5000000000000000000 ) ) ;
#155 = EDGE_LOOP ( 'NONE', ( #102, #233 ) ) ;
#156 = DIRECTION ( 'NONE',  ( 1.000000000000000000, 0.0000000000000000000, 0.0000000000000000000 ) ) ;
#157 = VECTOR ( 'NONE', #123, 1000.000000000000000 ) ;
#158 = DIRECTION ( 'NONE',  ( 1.000000000000000000, 0.0000000000000000000, 0.0000000000000000000 ) ) ;
#159 = CARTESIAN_POINT ( 'NONE',  ( 3.499999999999999600, 4.286263797015736100E-016, 0.5000000000000000000 ) ) ;
#160 =( NAMED_UNIT ( * ) SI_UNIT ( $, .STERADIAN. ) SOLID_ANGLE_UNIT ( ) );
#161 = EDGE_CURVE ( 'NONE', #186, #38, #169, .T. ) ;
#162 = ORIENTED_EDGE ( 'NONE', *, *, #205, .F. ) ;
#163 = APPLICATION_CONTEXT ( 'configuration controlled 3d designs of mechanical parts and assemblies' ) ;
#164 = LOCAL_TIME ( 10, 27, 10.00000000000000000, #195 ) ;
#165 = VERTEX_POINT ( 'NONE', #90 ) ;
#166 = PERSON_AND_ORGANIZATION_ROLE ( 'design_supplier' ) ;
#167 = VECTOR ( 'NONE', #44, 1000.000000000000000 ) ;
#168 = CALENDAR_DATE ( 2023, 8, 9 ) ;
#169 = CIRCLE ( 'NONE', #236, 1.100000000000000300 ) ;
#170 = EDGE_CURVE ( 'NONE', #165, #61, #197, .T. ) ;
#171 = ORIENTED_EDGE ( 'NONE', *, *, #135, .T. ) ;
#172 = CC_DESIGN_DATE_AND_TIME_ASSIGNMENT ( #84, #243, ( #39 ) ) ;
#173 = PLANE ( 'NONE',  #207 ) ;
#174 = CARTESIAN_POINT ( 'NONE',  ( 1.100000000000000300, 1.347111479062088700E-016, 0.5000000000000000000 ) ) ;
#175 = DIRECTION ( 'NONE',  ( 0.0000000000000000000, 0.0000000000000000000, 1.000000000000000000 ) ) ;
#176 = EDGE_CURVE ( 'NONE', #61, #185, #111, .T. ) ;
#177 = CARTESIAN_POINT ( 'NONE',  ( 0.0000000000000000000, 0.0000000000000000000, 0.0000000000000000000 ) ) ;
#178 = LOCAL_TIME ( 10, 27, 10.00000000000000000, #133 ) ;
#179 = ORIENTED_EDGE ( 'NONE', *, *, #212, .T. ) ;
#180 = ORIENTED_EDGE ( 'NONE', *, *, #121, .F. ) ;
#181 = DIRECTION ( 'NONE',  ( -0.0000000000000000000, -0.0000000000000000000, -1.000000000000000000 ) ) ;
#182 = PERSON ( 'UNSPECIFIED', 'UNSPECIFIED', 'UNSPECIFIED', ('UNSPECIFIED'), ('UNSPECIFIED'), ('UNSPECIFIED') ) ;
#183 = APPLICATION_PROTOCOL_DEFINITION ( 'international standard', 'config_control_design', 1994, #163 ) ;
#184 = CALENDAR_DATE ( 2023, 8, 9 ) ;
#185 = VERTEX_POINT ( 'NONE', #69 ) ;
#186 = VERTEX_POINT ( 'NONE', #83 ) ;
#187 = PRODUCT_DEFINITION_FORMATION_WITH_SPECIFIED_SOURCE ( 'ANY', '', #124, .NOT_KNOWN. ) ;
#188 = DATE_AND_TIME ( #184, #75 ) ;
#189 = ADVANCED_FACE ( 'NONE', ( #139 ), #67, .T. ) ;
#190 = CC_DESIGN_APPROVAL ( #45, ( #19 ) ) ;
#191 = APPROVAL_PERSON_ORGANIZATION ( #119, #45, #143 ) ;
#192 = VECTOR ( 'NONE', #220, 1000.000000000000000 ) ;
#193 = CARTESIAN_POINT ( 'NONE',  ( 0.0000000000000000000, 0.0000000000000000000, 0.5000000000000000000 ) ) ;
#194 = CARTESIAN_POINT ( 'NONE',  ( 0.0000000000000000000, 0.0000000000000000000, 0.5000000000000000000 ) ) ;
#195 = COORDINATED_UNIVERSAL_TIME_OFFSET ( 6, 0, .BEHIND. ) ;
#196 = DIRECTION ( 'NONE',  ( -1.000000000000000000, 0.0000000000000000000, 0.0000000000000000000 ) ) ;
#197 = CIRCLE ( 'NONE', #147, 3.499999999999999600 ) ;
#198 = DIRECTION ( 'NONE',  ( 1.000000000000000000, 0.0000000000000000000, 0.0000000000000000000 ) ) ;
#199 = EDGE_CURVE ( 'NONE', #68, #186, #109, .T. ) ;
#200 = APPROVAL ( #70, 'UNSPECIFIED' ) ;
#201 = CARTESIAN_POINT ( 'NONE',  ( 0.0000000000000000000, 0.0000000000000000000, 0.5000000000000000000 ) ) ;
#202 = CIRCLE ( 'NONE', #50, 1.100000000000000300 ) ;
#203 = ORIENTED_EDGE ( 'NONE', *, *, #199, .T. ) ;
#204 = CC_DESIGN_PERSON_AND_ORGANIZATION_ASSIGNMENT ( #149, #126, ( #19 ) ) ;
#205 = EDGE_CURVE ( 'NONE', #61, #165, #208, .T. ) ;
#206 = EDGE_LOOP ( 'NONE', ( #87, #179, #5, #94 ) ) ;
#207 = AXIS2_PLACEMENT_3D ( 'NONE', #115, #7, #8 ) ;
#208 = CIRCLE ( 'NONE', #112, 3.499999999999999600 ) ;
#209 = EDGE_LOOP ( 'NONE', ( #130, #203, #228, #240 ) ) ;
#210 = DESIGN_CONTEXT ( 'detailed design', #163, 'design' ) ;
#211 = FACE_OUTER_BOUND ( 'NONE', #24, .T. ) ;
#212 = EDGE_CURVE ( 'NONE', #68, #80, #244, .T. ) ;
#213 = FACE_BOUND ( 'NONE', #32, .T. ) ;
#214 = CC_DESIGN_APPROVAL ( #200, ( #187 ) ) ;
#215 = DIRECTION ( 'NONE',  ( 0.0000000000000000000, 0.0000000000000000000, 1.000000000000000000 ) ) ;
#216 = ORIENTED_EDGE ( 'NONE', *, *, #121, .T. ) ;
#217 = CARTESIAN_POINT ( 'NONE',  ( 0.0000000000000000000, 0.0000000000000000000, -0.5000000000000000000 ) ) ;
#218 = DATE_AND_TIME ( #231, #164 ) ;
#219 = DIRECTION ( 'NONE',  ( -0.0000000000000000000, -0.0000000000000000000, -1.000000000000000000 ) ) ;
#220 = DIRECTION ( 'NONE',  ( -0.0000000000000000000, -0.0000000000000000000, -1.000000000000000000 ) ) ;
#221 = AXIS2_PLACEMENT_3D ( 'NONE', #177, #175, #198 ) ;
#222 = MECHANICAL_CONTEXT ( 'NONE', #33, 'mechanical' ) ;
#223 = DIRECTION ( 'NONE',  ( 0.0000000000000000000, 0.0000000000000000000, 1.000000000000000000 ) ) ;
#224 = CIRCLE ( 'NONE', #81, 3.499999999999999600 ) ;
#225 = PERSON_AND_ORGANIZATION_ROLE ( 'creator' ) ;
#226 = CIRCLE ( 'NONE', #227, 3.499999999999999600 ) ;
#227 = AXIS2_PLACEMENT_3D ( 'NONE', #217, #215, #156 ) ;
#228 = ORIENTED_EDGE ( 'NONE', *, *, #35, .F. ) ;
#229 = ADVANCED_FACE ( 'NONE', ( #150 ), #78, .F. ) ;
#230 = AXIS2_PLACEMENT_3D ( 'NONE', #52, #241, #141 ) ;
#231 = CALENDAR_DATE ( 2023, 8, 9 ) ;
#232 = APPROVAL_DATE_TIME ( #145, #88 ) ;
#233 = ORIENTED_EDGE ( 'NONE', *, *, #161, .T. ) ;
#234 = DIRECTION ( 'NONE',  ( 1.000000000000000000, 0.0000000000000000000, 0.0000000000000000000 ) ) ;
#235 = EDGE_LOOP ( 'NONE', ( #140, #58 ) ) ;
#236 = AXIS2_PLACEMENT_3D ( 'NONE', #65, #30, #34 ) ;
#237 = DIRECTION ( 'NONE',  ( 1.000000000000000000, 0.0000000000000000000, 0.0000000000000000000 ) ) ;
#238 = CALENDAR_DATE ( 2023, 8, 9 ) ;
#239 = LOCAL_TIME ( 10, 27, 10.00000000000000000, #56 ) ;
#240 = ORIENTED_EDGE ( 'NONE', *, *, #245, .F. ) ;
#241 = DIRECTION ( 'NONE',  ( -0.0000000000000000000, -0.0000000000000000000, -1.000000000000000000 ) ) ;
#242 = DIRECTION ( 'NONE',  ( 1.000000000000000000, 0.0000000000000000000, 0.0000000000000000000 ) ) ;
#243 = DATE_TIME_ROLE ( 'creation_date' ) ;
#244 = CIRCLE ( 'NONE', #15, 1.100000000000000300 ) ;
#245 = EDGE_CURVE ( 'NONE', #80, #38, #93, .T. ) ;
#246 = ORIENTED_EDGE ( 'NONE', *, *, #176, .F. ) ;
#247 = PRODUCT_DEFINITION_SHAPE ( 'NONE', 'NONE',  #39 ) ;
#248 = ADVANCED_FACE ( 'NONE', ( #153 ), #27, .T. ) ;
#249 = AXIS2_PLACEMENT_3D ( 'NONE', #194, #219, #196 ) ;
ENDSEC;
END-ISO-10303-21;
